<?xml version="1.0" encoding="utf-8"?>
<!-- Generator: Adobe Illustrator 16.0.0, SVG Export Plug-In . SVG Version: 6.00 Build 0)  -->
<!DOCTYPE svg PUBLIC "-//W3C//DTD SVG 1.1//EN" "http://www.w3.org/Graphics/SVG/1.1/DTD/svg11.dtd">
<svg version="1.1" id="Слой_1" xmlns="http://www.w3.org/2000/svg" xmlns:xlink="http://www.w3.org/1999/xlink" x="0px" y="0px"
	 width="774.417px" height="18px" viewBox="0 0 774.417 18" enable-background="new 0 0 774.417 18" xml:space="preserve">
<g>
	<defs>
		<rect id="SVGID_1_" x="-438" y="-701.5" width="1680" height="1050"/>
	</defs>
	<clipPath id="SVGID_2_">
		<use xlink:href="#SVGID_1_"  overflow="visible"/>
	</clipPath>
</g>
<path fill="#842C00" d="M401.449,9.796c0,0-3.369-2.426-4.502-2.426c-1.129,0-2.045,1.086-2.045,2.426s0.916,2.426,2.045,2.426
	C398.08,12.222,401.449,9.796,401.449,9.796 M400.25,9.796h367.752 M372.5,9.796c0,0,3.371,2.426,4.501,2.426
	c1.131,0,2.047-1.086,2.047-2.426s-0.916-2.426-2.047-2.426C375.871,7.37,372.5,9.796,372.5,9.796 M373.701,9.796H6.965"/>
<path fill="none" stroke="#842C00" stroke-width="0.938" stroke-miterlimit="10" d="M401.449,9.796c0,0-3.369-2.426-4.502-2.426
	c-1.129,0-2.045,1.086-2.045,2.426s0.916,2.426,2.045,2.426C398.08,12.222,401.449,9.796,401.449,9.796z M400.25,9.796h367.752
	 M372.5,9.796c0,0,3.371,2.426,4.501,2.426c1.131,0,2.047-1.086,2.047-2.426s-0.916-2.426-2.047-2.426
	C375.871,7.37,372.5,9.796,372.5,9.796z M373.701,9.796H6.965"/>
<path fill="#842C00" d="M386.975,11.354c0.861,0,1.559-0.697,1.559-1.559s-0.697-1.559-1.559-1.559
	c-0.861,0-1.559,0.697-1.559,1.559S386.114,11.354,386.975,11.354"/>
<circle fill="none" stroke="#842C00" cx="386.975" cy="9.796" r="1.559"/>
</svg>
