<?xml version="1.0" encoding="utf-8"?>
<!-- Generator: Adobe Illustrator 16.0.0, SVG Export Plug-In . SVG Version: 6.00 Build 0)  -->
<!DOCTYPE svg PUBLIC "-//W3C//DTD SVG 1.1//EN" "http://www.w3.org/Graphics/SVG/1.1/DTD/svg11.dtd">
<svg version="1.1" id="Слой_1" xmlns="http://www.w3.org/2000/svg" xmlns:xlink="http://www.w3.org/1999/xlink" x="0px" y="0px"
	 width="789px" height="183px" viewBox="0 0 789 183" enable-background="new 0 0 789 183" xml:space="preserve">
<g>
	<defs>
		<rect id="SVGID_1_" x="-443" y="-246" width="1680" height="1050"/>
	</defs>
	<clipPath id="SVGID_2_">
		<use xlink:href="#SVGID_1_"  overflow="visible"/>
	</clipPath>
	<path clip-path="url(#SVGID_2_)" fill="#842C00" d="M127.099,169.913c-3.495,0.14-5.492,0.214-5.988,0.214
		c-2.638,0-7.418-0.128-14.331-0.375c-6.917-0.249-21.284-0.375-43.101-0.375H36.518c-0.998,0-4.635,0.177-10.91,0.536
		c-6.273,0.355-10.088,0.534-11.442,0.534c-5.421,0-8.128-0.714-8.128-2.138c0-1.138,1.069-1.745,3.205-1.816
		c6.909-0.428,11.717-1.907,14.426-4.436c2.706-2.533,4.556-6.165,5.555-10.91c0.998-4.74,1.497-17.554,1.497-38.443l0.106-38.281
		c0-12.405-0.553-21.068-1.654-25.984c-1.108-4.92-3.385-8.681-6.84-11.284c-3.457-2.599-7.356-4.078-11.701-4.437
		c-2.279-0.219-3.42-0.987-3.42-2.301c0-1.316,1.032-1.973,3.1-1.973c0.496,0,1.424,0.037,2.78,0.106
		c11.325,0.714,24.574,1.07,39.745,1.07l18.807-0.321c1.924,0,2.884,0.715,2.884,2.136c0,1.283-1.034,1.925-3.099,1.925
		c-5.058,0-9.278,0.997-12.663,2.992c-3.383,1.995-5.624,4.291-6.729,6.891c-1.104,2.602-1.655,7.677-1.655,15.225l-0.854,50.539
		l0.211,28.208c0,8.764,0.374,14.462,1.123,17.097c0.747,2.638,2.298,5.006,4.648,7.106c2.351,2.101,6.631,3.151,12.83,3.151
		c0.498,0,6.877-0.214,19.134-0.64c9.761-1.352,18.528-6.125,26.297-14.318c7.765-8.192,12.933-15.529,15.497-22.009
		c0.778-1.855,1.733-2.78,2.865-2.78c1.202,0,1.802,0.856,1.802,2.564c0,1.995-1.017,9.135-3.05,21.422
		C128.849,161.095,127.588,168.132,127.099,169.913"/>
	<path clip-path="url(#SVGID_2_)" fill="#842C00" d="M170.596,113.925c9.279,0.425,18.277,0.64,26.987,0.64l5.678-0.32
		c4.281-0.143,7.565-0.979,9.85-2.513c2.284-1.53,3.427-4.219,3.427-8.065c0-5.983-2.054-11.202-6.157-15.655
		c-4.107-4.45-8.945-6.678-14.51-6.678c-5.142,0-10.267,2.548-15.371,7.641C175.393,94.067,172.095,102.383,170.596,113.925
		 M170.596,119.479c-0.288,3.632-0.429,6.518-0.429,8.653c0,10.117,2.979,18.665,8.942,25.645
		c5.958,6.981,13.328,10.471,22.11,10.471c8.567,0,16.529-3.419,23.88-10.257c2.141-1.924,3.498-2.886,4.07-2.886
		c1.144,0,1.748,0.926,1.822,2.78c-2.709,4.985-7.344,9.188-13.898,12.607c-6.555,3.42-13.86,5.13-21.909,5.13
		c-11.832,0-21.843-4.256-30.037-12.769c-8.193-8.513-12.291-19.288-12.291-32.322c0-13.962,4.505-25.608,13.517-34.94
		c9.01-9.33,18.645-13.997,28.903-13.997c9.614,0,18.307,3.652,26.07,10.951c7.764,7.303,11.647,15.867,11.647,25.699
		c0,1.495-0.232,2.6-0.697,3.311c-0.465,0.714-3.192,1.068-8.187,1.068L170.596,119.479z"/>
	<path clip-path="url(#SVGID_2_)" fill="#842C00" d="M286.655,132.835c0,9.403,0.622,16.117,1.87,20.14
		c1.245,4.025,3.916,7.338,8.014,9.938c4.095,2.6,10.666,3.899,19.712,3.899c12.966,0,23.469-3.06,31.522-9.189
		c8.048-6.124,14.333-14.28,18.859-24.468c4.52-10.184,6.784-21.012,6.784-32.483c0-16.951-5.167-32.302-15.493-46.05
		c-10.33-13.747-26.391-20.624-48.189-20.624c-9.69,0-15.334,0.323-16.935,0.963c-1.604,0.642-2.404,2.529-2.404,5.664
		c0,2.777-0.249,7.728-0.75,14.853c-0.712,10.4-1.174,18.519-1.388,24.36l-0.962,29.382
		C286.867,122.972,286.655,130.841,286.655,132.835 M290.395,29.62l22.01-0.427c27.849,0,48.9,6.768,63.148,20.302
		c14.246,13.532,21.369,30.593,21.369,51.178c0,14.606-3.42,27.3-10.258,38.092s-15.387,18.93-25.644,24.414
		c-10.258,5.487-23.935,8.228-41.027,8.228c-3.848,0-8.727-0.214-14.641-0.64c-10.543-0.854-16.452-1.284-17.735-1.284
		c-23.366,0-37.112,0.25-41.246,0.75c-2.349,0-3.525-0.598-3.525-1.788c0-0.83,0.429-1.387,1.284-1.663
		c0.854-0.278,3.486-0.696,7.905-1.25c5.698-0.786,9.707-3.066,12.021-6.844c2.315-3.78,3.755-15.541,4.329-35.287l1.709-56.569
		c0-6.559-0.448-12.885-1.338-18.982c-0.891-6.095-2.279-10.016-4.165-11.763c-1.89-1.745-4.899-2.943-9.028-3.583
		c-2.994-0.426-4.489-1.245-4.489-2.455c0-1.499,0.75-2.244,2.244-2.244c1.424,0,5.786,0.303,13.088,0.905
		C273.709,29.318,281.702,29.62,290.395,29.62"/>
	<path clip-path="url(#SVGID_2_)" fill="#842C00" d="M433.756,113.925c9.281,0.425,18.277,0.64,26.989,0.64l5.676-0.32
		c4.283-0.143,7.565-0.979,9.851-2.513c2.283-1.53,3.428-4.219,3.428-8.065c0-5.983-2.055-11.202-6.157-15.655
		c-4.105-4.45-8.943-6.678-14.51-6.678c-5.143,0-10.266,2.548-15.37,7.641C438.555,94.067,435.255,102.383,433.756,113.925
		 M433.756,119.479c-0.287,3.632-0.429,6.518-0.429,8.653c0,10.117,2.981,18.665,8.943,25.645
		c5.958,6.981,13.329,10.471,22.109,10.471c8.568,0,16.53-3.419,23.88-10.257c2.143-1.924,3.499-2.886,4.071-2.886
		c1.143,0,1.747,0.926,1.821,2.78c-2.709,4.985-7.343,9.188-13.897,12.607c-6.556,3.42-13.861,5.13-21.909,5.13
		c-11.831,0-21.843-4.256-30.037-12.769c-8.193-8.513-12.29-19.288-12.29-32.322c0-13.962,4.505-25.608,13.515-34.94
		c9.01-9.33,18.646-13.997,28.904-13.997c9.614,0,18.308,3.652,26.069,10.951c7.764,7.303,11.648,15.867,11.648,25.699
		c0,1.495-0.234,2.6-0.698,3.311c-0.464,0.714-3.19,1.068-8.188,1.068L433.756,119.479z"/>
	<path clip-path="url(#SVGID_2_)" fill="#842C00" d="M514.006,126.266c0-13.051,4.182-24.461,12.553-34.23
		c8.369-9.77,18.575-14.656,30.614-14.656c7.762,0,15.207,1.907,22.33,5.716c7.123,3.814,10.686,8.568,10.686,14.266
		c0,2.206-0.678,4.15-2.03,5.822c-1.353,1.677-2.923,2.513-4.701,2.513c-3.989,0-7.053-3.206-9.189-9.618
		c-3.278-9.829-9.012-14.745-17.201-14.745c-8.122,0-14.302,3.513-18.541,10.539c-4.237,7.025-6.355,16.244-6.355,27.655
		c0,13.408,2.955,24.357,8.867,32.846c5.912,8.488,13.035,12.729,21.368,12.729c5.484,0,10.793-2.135,15.921-6.409
		c5.06-4.203,8.015-9.333,8.869-15.387c0.355-2.065,1.141-3.098,2.354-3.098c1.279,0,1.921,0.64,1.921,1.921
		c0,6.982-3.224,13.535-9.669,19.66c-6.447,6.127-15.085,9.191-25.91,9.191c-11.826,0-21.762-4.494-29.812-13.478
		C518.027,148.518,514.006,138.105,514.006,126.266"/>
	<path clip-path="url(#SVGID_2_)" fill="#842C00" d="M623.535,124.127c0,12.236,2.832,22.409,8.495,30.52
		c5.662,8.112,12.662,12.165,20.995,12.165c7.621,0,14.334-3.804,20.142-11.419c5.804-7.612,8.707-17.714,8.707-30.306
		c0-11.24-2.796-21.253-8.388-30.04c-5.593-8.784-12.84-13.18-21.744-13.18c-8.264,0-15.028,4.003-20.3,12.005
		C626.17,101.878,623.535,111.962,623.535,124.127 M606.227,124.768c0-12.523,4.52-23.551,13.568-33.084
		c9.047-9.533,20.158-14.304,33.337-14.304c12.396,0,23.06,4.271,32.002,12.808c8.938,8.537,13.408,19.21,13.408,32.019
		c0,12.95-4.7,24.316-14.103,34.1c-9.404,9.782-20.375,14.675-32.91,14.675c-12.395,0-23.044-4.499-31.945-13.504
		C610.677,148.48,606.227,137.577,606.227,124.768"/>
	<path clip-path="url(#SVGID_2_)" fill="#842C00" d="M738.48,101.879c4.487-7.989,9.277-13.982,14.371-17.974
		c5.093-3.994,10.453-5.991,16.08-5.991c3.92,0,7.304,1.408,10.152,4.223c2.846,2.814,4.274,6,4.274,9.563
		c0,6.767-2.886,10.149-8.656,10.149c-2.706,0-4.987-1.887-6.84-5.664c-2.278-4.77-5.304-7.159-9.079-7.159
		c-3.563,0-7.231,2.001-11.007,5.993c-3.777,3.997-6.304,8.365-7.588,13.109c-1.28,4.743-1.919,14.675-1.919,29.799
		c0,13.836,0.567,21.774,1.708,23.806c1.138,2.033,4.059,3.332,8.76,3.904c1.285,0.145,1.924,0.642,1.924,1.496
		c0,1.495-1.675,2.244-5.021,2.244h-34.086c-2.424,0-3.635-0.605-3.635-1.816c0-1.139,1.605-1.779,4.811-1.924
		c4.487-0.283,7.266-1.673,8.333-4.172c1.069-2.495,1.604-11.696,1.604-27.603c0-23.322-0.479-37.337-1.444-42.046
		c-0.961-4.708-4.538-7.204-10.736-7.489c-2.566-0.142-3.846-0.82-3.846-2.03c0-0.643,0.266-1.125,0.8-1.444
		c0.535-0.32,3.794-0.657,9.777-1.015l19.661-1.07C737.375,82.623,737.909,90.324,738.48,101.879"/>
	<path clip-path="url(#SVGID_2_)" fill="#842C00" d="M272.83,57.953c-0.013-0.365-0.013-0.742-0.034-1.098
		c-0.16-2.19-0.472-4.372-0.415-6.548c0.035-1.265,0.092-2.282-1.197-2.857c-0.053-0.033-0.08-0.142-0.128-0.214
		c-0.664-0.972-1.389-1.911-1.973-2.927c-0.57-1.024-1.128-2.105-1.454-3.229c-0.313-1.096-0.32-2.279-0.473-3.4
		c-0.474-0.211-0.901-0.501-1.353-0.572c-0.681-0.104-1.378-0.038-2.071-0.047c-1.067,0-1.275,0.156-1.218,1.274
		c0.059,1.139,0.141,2.298,0.42,3.4c0.483,1.948,1.029,3.89,1.707,5.769c0.461,1.251,1.23,2.371,1.797,3.574
		c0.952,2.022,2.14,3.862,3.767,5.351c0.729,0.664,1.611,1.159,2.425,1.727C272.692,58.089,272.758,58.021,272.83,57.953
		 M281.013,164.346c0.051-0.755-0.296-1.325-0.845-1.787c-0.181-0.157-0.388-0.32-0.51-0.528c-0.488-0.836-1.238-1.408-2.075-1.761
		c-1.517-0.646-3.097-1.162-4.65-1.727c-0.507-0.184-1.017-0.45-1.551-0.51c-1.094-0.106-2.234,0.017-3.322-0.184
		c-2.217-0.418-4.097,0.266-5.932,1.563c0.721,0.835,1.485,1.558,2.043,2.418c1.395,2.129,3.032,4.002,4.872,5.698
		c0.947,0.871,1.894,1.789,3.232,2.06c0.341,0.079,0.619,0.473,0.969,0.77c0.442,0.177,0.976,0.389,1.518,0.59
		c0.205,0.075,0.421,0.174,0.628,0.174c0.89,0.021,1.799,0.037,2.689-0.025c1.567-0.131,2.496-1.104,2.629-2.688
		C280.817,167.056,280.925,165.696,281.013,164.346 M279.881,102.8c0.008-0.231-0.145-0.462-0.225-0.687
		c-0.747-0.054-1.479-0.112-2.229-0.168c-0.015,0.171-0.054,0.287-0.024,0.388c0.15,0.5,1.751,1.322,2.193,1.081
		C279.762,103.323,279.881,103.011,279.881,102.8 M280.435,98.941c-0.071-0.518,0.445-1.105-0.149-1.561
		c-1.881-1.418-3.032-3.365-3.835-5.559c-0.7-1.93-1.503-3.791-2.724-5.442c-0.332-0.463-0.655-0.93-0.91-1.438
		c-1.242-2.543-2.516-5.063-3.696-7.626c-1.283-2.754-2.485-5.546-3.744-8.374c-0.06,0.15-0.173,0.329-0.198,0.524
		c-0.237,1.93-0.443,3.869-0.676,5.802c-0.271,2.173,0.032,4.288,0.541,6.382c0.252,1.061,0.507,2.122,0.742,3.186
		c0.263,1.108,0.299,2.348,0.809,3.325c0.499,0.962,0.969,1.859,1.012,2.961c0.017,0.197,0.182,0.407,0.298,0.588
		c0.618,0.936,1.346,1.805,1.824,2.815c0.554,1.149,1.313,1.942,2.391,2.564c2.349,1.349,4.838,2.146,7.538,2.209
		C279.932,99.297,280.449,99.028,280.435,98.941 M282.768,132.248c0.418-0.955,0.377-1.877,0.276-2.855
		c-0.198-1.747-0.806-3.264-2.134-4.413c-0.114-0.096-0.315-0.249-0.424-0.208c-0.922,0.343-2.002,0.51-2.702,1.123
		c-1.217,1.094-1.84,2.63-2.201,4.299c-0.659,3.068,0.863,4.326,3.204,4.472c0.625-0.171,1.346-0.193,1.886-0.524
		C281.472,133.67,282.323,133.237,282.768,132.248 M283.702,157.054c0.122-0.334,0.124-0.922-0.084-1.149
		c-1.325-1.497-2.785-2.881-4.093-4.393c-1.642-1.891-3.217-3.845-4.743-5.823c-0.874-1.131-1.595-2.385-2.394-3.577
		c-1.525-2.274-3.06-4.532-4.583-6.8c-0.748-1.121-1.452-2.241-2.217-3.34c-0.599-0.877-1.27-1.71-1.891-2.568
		c-0.641-0.892-1.24-1.807-1.903-2.689c-0.152-0.188-0.472-0.256-0.825-0.426c-0.032,1.308-0.187,2.457-0.065,3.577
		c0.193,1.853,0.481,3.718,0.88,5.535c0.646,2.953,1.272,5.919,2.165,8.788c0.956,3.066,2.733,5.678,5.181,7.69
		c2.249,1.873,4.526,3.75,7.259,4.882c1.524,0.629,3.006,1.326,4.171,2.574c0.32,0.337,0.691,0.619,1.045,0.927
		c0.39,0.355,0.618,0.317,0.836-0.234C282.822,159.026,283.331,158.068,283.702,157.054 M282.122,76.927
		c-0.167-1.044,0.996-1.755,0.53-3.003c-0.354-0.937-0.676-1.631-1.607-1.862c-0.47-0.13-0.98-0.109-1.466-0.146
		c-0.003,0.013-0.003,0.037-0.003,0.07c-0.389,0.017-0.789-0.024-1.171,0.035c-0.686,0.109-1.346,0.272-1.772,0.986
		c-0.872,1.479-1.008,2.944-0.12,4.453c0.522,0.865,1.206,1.452,2.233,1.533C280.347,79.106,281.125,77.824,282.122,76.927
		 M284.55,86.409c0.237-0.748,0.934-1.497,0.506-2.276c-0.572-1.045-1.343-1.995-2.41-2.582c-0.418-0.222-0.83-0.425-1.242-0.646
		c0.107-0.146,0.219-0.295,0.324-0.449c-0.626,0.244-1.264,0.466-1.895,0.721c-0.802,0.32-1.61,0.519-2.43,0.104
		c-0.591-0.296-1.163-0.611-1.72-0.941c-0.208-0.118-0.447-0.256-0.551-0.438c-0.646-1.177-1.363-2.291-1.561-3.693
		c-0.167-1.132-0.315-2.241,0.177-3.233c0.415-0.857,0.252-1.285-0.448-1.832c-1.544-1.196-3.142-2.281-4.933-3.025
		c-0.151-0.059-0.341-0.021-0.514-0.021c0.007,0.184-0.03,0.374,0.025,0.546c0.175,0.504,0.375,0.997,0.576,1.497
		c1.189,3.033,2.404,6.035,4.325,8.697c0.744,1.04,1.343,2.209,1.952,3.373c1.723,3.238,3.389,6.524,5.12,9.77
		c0.413,0.775,0.996,1.468,1.607,2.352c1.037-2.73,1.963-5.204,2.904-7.663C284.396,86.569,284.514,86.507,284.55,86.409
		 M287.137,149.469c0.09-0.011,0.173-0.024,0.258-0.033c-0.385-1.691-0.83-3.36-1.145-5.066c-0.483-2.551-1.992-4.602-3.064-6.876
		c-0.285-0.608-0.827-1.112-1.669-0.884c-0.528,0.14-1.093,0.164-1.622,0.306c-1.561,0.415-3.035,0.163-4.386-0.687
		c-0.911-0.57-1.767-1.248-2.226-2.336c-0.688-1.624-0.474-3.246-0.124-4.895c0.109-0.503,0.725-1.377-0.588-1.179
		c-0.077,0.009-0.172-0.146-0.264-0.205c-0.476-0.302-0.936-0.655-1.435-0.899c-1.014-0.494-2.038-0.944-3.067-1.371
		c-1.04-0.431-2.087-0.846-3.145-1.166c-0.197-0.049-0.748,0.415-0.727,0.578c0.092,0.584,0.238,1.21,0.564,1.685
		c1.313,1.949,2.671,3.85,4.049,5.742c1.373,1.875,2.806,3.696,4.188,5.571c0.993,1.341,1.959,2.715,2.878,4.115
		c1.192,1.806,2.407,3.581,3.984,5.055c0.683,0.637,1.363,1.267,1.921,1.989c1.129,1.437,2.185,2.928,3.232,4.437
		c0.372,0.528,0.708,0.48,1.037,0.046C286.665,152.256,287.501,151.084,287.137,149.469 M285.169,46.434
		c0.125-2.265-0.048-4.437-0.973-6.521c-0.833-1.845-1.601-3.715-2.448-5.552c-0.128-0.265-0.54-0.513-0.841-0.564
		c-0.92-0.136-1.655-0.64-2.185-1.346c-0.469-0.623-0.635-1.487-1.08-2.13c-0.151-0.214-0.266-0.424-0.352-0.638
		c-0.432-1.085-0.18-2.2,0.33-3.05c0.948-1.584,0.147-2.736-0.492-3.856c-0.837-1.441-1.907-2.754-2.972-4.03
		c-1.17-1.389-2.484-2.611-4.235-3.221c-0.564-0.196-0.869-0.047-1.008,0.47c-0.207,0.84-0.451,1.685-0.5,2.542
		c-0.084,1.594-0.078,3.189-0.054,4.784c0.038,1.58,0.125,3.156,0.245,4.722c0.119,1.647,0.241,3.301,0.479,4.944
		c0.246,1.721,0.56,3.444,0.974,5.134c0.446,1.761,1.047,3.48,1.587,5.217c0.268,0.838,0.799,1.167,1.697,1.106
		c0.719-0.038,1.447,0.169,2.158,0.326c0.721,0.157,1.421,0.388,2.295,0.64c-0.136-0.705-0.201-1.326-0.382-1.9
		c-0.709-2.221-1.458-4.414-2.202-6.613c-0.694-2.067-1.402-4.124-2.091-6.199c-0.222-0.696-0.516-1.41-0.557-2.124
		c-0.03-0.484,0.19-1.217,0.543-1.451c0.51-0.328,1.118,0.009,1.503,0.554c0.061,0.095,0.133,0.184,0.18,0.291
		c0.297,0.615,0.635,1.224,0.933,1.844c0.179,0.37,0.345,0.761,0.478,1.145c0.738,2.253,1.376,4.549,2.043,6.831
		c0.836,2.835,1.724,5.647,1.884,8.638c0.018,0.445,0.061,0.955,0.292,1.282c0.785,1.138,1.65,2.231,2.92,2.836
		c0.406,0.207,0.738,0.275,1.024-0.351C284.906,48.977,285.097,47.767,285.169,46.434 M287.962,122.097
		c0.153-0.101,0.201-0.625,0.079-0.785c-0.451-0.596-0.892-1.159-1.286-1.82c-0.991-1.666-1.268-3.222-0.696-5.056
		c0.266-0.872,0.574-1.883-0.256-2.706c-0.175-0.17-0.353-0.323-0.509-0.51c-1.266-1.451-2.639-2.733-4.406-3.511
		c-0.234-0.1-0.415-0.361-0.602-0.551c-0.231-0.22-0.397-0.516-0.646-0.657c-1.06-0.573-2.149-1.08-3.206-1.663
		c-2.455-1.319-5.031-2.229-7.826-2.375c-1.136-0.054-2.282-0.075-3.424-0.109c-0.557-0.024-1.097-0.086-1.647-0.084
		c-0.431,0.009-0.739,0.204-0.662,0.744c0.137,0.948,0.181,1.933,0.423,2.858c0.407,1.555,0.842,3.115,1.433,4.604
		c1.055,2.676,2.139,5.352,3.424,7.911c1.404,2.812,3.541,5.053,5.927,7.028c0.138,0.106,0.55,0.023,0.747-0.109
		c0.33-0.227,0.54-0.667,0.878-0.863c1.495-0.851,3.021-1.666,4.572-2.503c-0.17-0.242-0.398-0.598-0.653-0.921
		c-1.788-2.224-3.583-4.447-5.389-6.649c-0.934-1.129-1.868-2.279-2.893-3.293c-0.587-0.57-1.414-0.88-2.076-1.385
		c-0.246-0.175-0.426-0.593-0.416-0.906c0.007-0.21,0.381-0.57,0.598-0.578c1.106-0.016,2.194-0.19,3.231,0.584
		c1.982,1.487,3.479,3.443,5.146,5.247c2.827,3.062,5.525,6.18,6.947,10.296C285.896,123.565,286.956,122.868,287.962,122.097
		 M286.1,29.193c0.098-1.224-0.235-2.367-1.133-3.243c-0.577-0.563-1.238-1.031-2.077-0.805c-1.322,0.37-2.781,0.525-3.128,2.373
		c-0.143,0.822,0.179,2.304,0.656,2.951c0.766,1.033,1.783,0.954,2.819,0.968c0.115-0.003,0.224,0,0.337-0.014
		C285.059,31.295,285.984,30.543,286.1,29.193 M287.371,82.393c0.122-0.142,0.246-0.285,0.37-0.427
		c-0.224-0.075-0.455-0.154-0.622-0.214c0.607-0.963,1.252-2.004,1.959-3.115c-1.553-0.415-2.85-0.795-4.172-1.109
		c-0.591-0.139-1.06,0.029-1.255,0.759c-0.169,0.584-0.199,0.936,0.333,1.366c0.53,0.422,1.051,0.997,1.294,1.622
		C285.721,82.353,286.434,82.516,287.371,82.393 M291.652,74.727c0.077-0.643,0.248-1.275,0.229-1.903
		c-0.037-1.517-0.166-3.02-0.254-4.52c-0.015-0.09-0.015-0.172-0.03-0.255c-0.9-3.549-2.092-6.985-4.38-9.859
		c-1.162-1.465-2.493-2.79-3.797-4.13c-0.845-0.877-1.749-1.696-2.645-2.505c-1.357-1.229-2.713-2.453-4.132-3.606
		c-0.306-0.244-0.877-0.261-1.292-0.2c-0.16,0.018-0.369,0.569-0.353,0.861c0.071,2.029,0.144,4.052,0.306,6.061
		c0.133,1.63,0.326,3.267,0.622,4.876c0.19,1.041,0.663,2.024,0.909,3.063c0.54,2.241,1.07,4.498,2.79,6.164
		c0.331,0.326,0.809,0.49,1.191,0.759c0.89,0.6,1.951,1.07,2.62,1.883c0.65,0.779,0.861,1.938,1.331,2.899
		c0.175,0.371,0.483,0.779,0.836,0.925c0.996,0.432,2.032,0.755,3.078,1.069c0.103,0.027,0.471-0.328,0.441-0.433
		c-0.498-1.968-0.735-4.039-1.935-5.756c-0.602-0.856-1.228-1.699-1.806-2.57c-1.401-2.057-2.804-4.117-4.131-6.218
		c-0.262-0.412-0.326-1.023-0.298-1.541c0.036-0.952,0.852-1.329,1.596-0.754c0.396,0.293,0.729,0.714,0.998,1.136
		c1.675,2.462,3.279,4.967,4.974,7.411c1.159,1.697,2.016,3.52,2.513,5.531c0.141,0.538,0.301,1.078,0.443,1.612H291.652z
		 M295.688,117.044c0.227-1.409,0.081-2.9-0.508-4.286c-0.298-0.705-1.774-1.63-2.518-1.654c-1.088-0.015-1.853,0.539-2.591,1.226
		c-1.123,1.074-2.152,2.212-1.976,3.978c-0.074,0.027-0.152,0.054-0.222,0.09c0.412,1.054,0.713,2.176,1.28,3.136
		c0.445,0.733,1.331,0.86,2.191,1.032c1.052,0.201,1.851,0.059,2.659-0.578C294.957,119.237,295.52,118.143,295.688,117.044
		 M294.532,36.451c0.102-1.498,0.2-2.991,0.122-4.486c-0.059-1.188-0.379-2.368-0.572-3.571c-0.017-0.101-0.03-0.194-0.041-0.303
		c-0.098-0.73-0.122-1.468-0.312-2.166c-0.317-1.127-0.771-2.206-1.177-3.32c-0.67-1.789-1.262-3.618-2.033-5.364
		c-0.75-1.685-1.65-3.302-2.54-4.914c-0.389-0.7-0.887-1.339-1.352-2.003c-0.314-0.462-0.607-0.374-0.863,0.071
		c-0.181,0.347-0.375,0.7-0.551,1.052c-1.429,2.828-3.047,5.564-3.758,8.73c-0.152,0.663-0.276,1.392-1.02,1.764
		c-0.142,0.073-0.22,0.491-0.171,0.719c0.043,0.169,0.331,0.36,0.523,0.376c1.089,0.113,2.195,0.156,3.289,0.253
		c1.33,0.121,2.527,0.525,3.265,1.781c0.326,0.561,0.621,1.139,0.907,1.726c0.256,0.542,0.415,1.093,0.486,1.622
		c0.316,2.34-1.098,4.454-3.613,5.198c0.19,0.721,0.353,1.396,0.549,2.061c0.344,1.152,0.749,2.284,1.068,3.428
		c0.31,1.128,0.527,2.29,0.831,3.412c0.057,0.241,0.271,0.55,0.472,0.599c0.182,0.047,0.496-0.15,0.653-0.334
		c0.636-0.751,1.183-1.595,1.87-2.304c1.084-1.091,2.268-2.078,3.379-3.126C294.195,37.108,294.516,36.761,294.532,36.451
		 M301.821,143.203c-0.073-0.113-0.147-0.222-0.231-0.337c-0.879,0.378-1.84,0.646-2.653,1.153c-1.36,0.85-2.665,1.828-3.938,2.826
		c-0.993,0.777-1.978,1.586-2.801,2.538c-0.917,1.047-1.705,2.232-2.441,3.432c-1.607,2.668-3.313,5.28-4.3,8.292
		c-0.708,2.185-1.605,4.307-1.242,6.885c0.341-0.269,0.646-0.436,0.865-0.691c0.993-1.181,1.957-2.397,2.941-3.597
		c0.32-0.391,0.693-0.742,0.972-1.156c1.298-2.016,2.581-4.053,3.875-6.094c1.558-2.447,3.145-4.871,4.646-7.338
		c0.941-1.547,1.715-3.16,3.12-4.363C301.12,144.354,301.43,143.727,301.821,143.203 M299.774,51.466
		c0.367-1.351,0.471-2.598-0.238-3.818c-0.154-0.272-0.445-0.571-0.717-0.63c-2.632-0.641-5.747,0.646-5.413,4.119
		c0.006,0.285-0.024,0.578,0.033,0.861c0.272,1.426,1.035,2.756,2.771,2.714C298.063,54.665,299.26,53.458,299.774,51.466
		 M301.205,35.756c0.035-0.515-0.255-0.823-0.728-0.445c-1.356,1.073-3.155,1.403-4.331,2.817c-0.422,0.516-1.091,0.814-1.66,1.204
		c-0.51,0.36-1.138,0.609-1.56,1.06c-1.162,1.272-2.271,2.601-3.341,3.955c-0.676,0.854-1.275,1.773-1.808,2.712
		c-0.26,0.475-0.26,1.105-0.491,1.612c-0.499,1.153-1.091,2.282-1.581,3.444c-0.116,0.258-0.077,0.713,0.078,0.949
		c0.32,0.469,0.803,0.809,1.159,1.254c1.867,2.214,3.595,4.559,5.001,7.139c0.473,0.891,1.018,1.013,1.683,0.28
		c0.592-0.654,1.153-1.374,1.592-2.139c0.47-0.806,0.782-1.711,1.167-2.571c-0.083-0.094-0.171-0.203-0.246-0.299
		c-0.598-0.057-1.206-0.027-1.788-0.163c-1.955-0.483-2.631-2.172-3.26-3.845c-0.762-2.006,0.16-3.695,1.123-5.309
		c0.448-0.753,1.018-1.47,1.667-2.038c0.593-0.51,1.357-1.067,2.089-1.15c1.1-0.108,2.236,0.215,3.358,0.274
		c0.306,0.019,0.778-0.195,0.9-0.446c0.29-0.552,0.504-1.196,0.559-1.817C300.969,40.079,301.089,37.914,301.205,35.756
		 M304.911,148.221c0.196-1.672,0.418-3.343,0.628-5.018c-0.088-0.062-0.19-0.119-0.285-0.174c-0.255,0.142-0.562,0.228-0.755,0.438
		c-0.407,0.42-0.676,0.998-1.126,1.343c-1.718,1.294-2.616,3.264-3.801,4.985c-1.542,2.217-2.919,4.575-4.373,6.865
		c-1.28,2.036-2.548,4.095-3.901,6.101c-1.211,1.761-2.543,3.448-3.773,5.202c-0.42,0.593-1.143,1.077-0.971,2.067
		c0.233-0.06,0.44-0.06,0.595-0.155c1.684-1.096,3.415-2.122,5.012-3.347c1.289-0.989,2.419-2.199,3.557-3.365
		c1.175-1.203,2.396-2.379,3.371-3.751c1.283-1.815,2.445-3.75,3.468-5.737C303.462,151.926,304.67,150.288,304.911,148.221
		 M304.99,121.22c0.131-0.337-0.052-0.796-0.106-1.269c-0.225,0.132-0.398,0.241-0.585,0.351c-0.411-0.877,0.422-0.62,0.876-0.932
		c-0.304-0.169-0.508-0.373-0.71-0.387c-0.74-0.025-1.502-0.102-2.226,0.039c-1.805,0.358-3.604,0.814-5.4,1.245
		c-0.186,0.041-0.492,0.13-0.497,0.228c-0.057,0.711-0.665,0.633-1.056,0.877c-0.205,0.124-0.33,0.385-0.499,0.578
		c-0.153,0.306-0.45,0.527-0.787,0.596c-0.768,0.186-1.58,0.492-2.312,0.384c-0.852-0.142-1.448,0.179-2.084,0.547
		c-0.333,0.188-0.618,0.452-0.94,0.669c-1.038,0.729-2.094,1.432-3.098,2.206c-0.21,0.16-0.317,0.607-0.272,0.892
		c0.142,0.814,0.602,1.635,0.547,2.421c-0.077,1.254-0.485,2.481-0.735,3.726c-0.101,0.462-0.366,1.023-0.207,1.381
		c0.374,0.849,0.943,1.601,1.438,2.382c1.034-1.934,1.897-3.824,3.009-5.538c0.885-1.403,2.098-2.573,3.124-3.893
		c0.61-0.794,1.388-1.247,2.317-1.347c0.342-0.033,0.852,0.16,1.053,0.429c0.451,0.623,0,1.12-0.429,1.547
		c-0.662,0.653-1.383,1.251-1.987,1.951c-2.048,2.391-3.263,5.27-4.438,8.164c-0.479,1.173-0.877,2.445-0.598,3.757
		c0.267,1.269,0.662,2.523,1.034,3.892c0.285-0.112,0.649-0.16,0.845-0.367c0.727-0.788,1.424-1.615,2.085-2.451
		c0.56-0.705,1.024-1.495,1.624-2.152c0.518-0.567,1.334-0.892,1.734-1.509c0.983-1.527,1.792-3.159,2.68-4.734
		c0.723-1.29,1.506-2.535,2.19-3.848c0.798-1.529,1.526-3.091,2.246-4.663C303.585,124.691,304.309,122.963,304.99,121.22
		 M303.942,70.277c0.034-1.189-0.389-1.404-1.503-1.094c-1.578,0.442-2.73,1.655-3.774,2.733c-1.206,1.245-2.744,2.108-3.771,3.603
		c-0.975,1.417-2.3,2.573-3.375,3.92c-0.812,1.006-1.432,2.18-2.22,3.212c-1.105,1.43-1.966,3.004-2.634,4.694
		c-0.855,2.174-1.94,4.258-2.407,6.588c-0.233,1.176-0.767,2.288-0.939,3.45c-0.282,1.897-0.418,3.811-0.558,5.709
		c-0.109,1.383,0.007,2.723,1.169,3.681c0.442,0.365,0.952,0.654,1.554,1.062c0.099-0.534,0.147-0.86,0.186-1.193
		c0.233-1.677,0.359-3.376,0.697-5.029c0.713-3.614,2.404-6.865,3.924-10.139c1.639-3.542,3.549-6.939,5.356-10.375
		c0.193-0.367,0.469-0.705,0.76-1.007c0.317-0.337,0.69-0.599,1.161-0.261c0.48,0.336,0.389,0.785,0.187,1.216
		c-0.45,0.949-0.922,1.884-1.355,2.833c-1.699,3.658-3.405,7.316-5.056,10.995c-0.671,1.493-1.376,3.002-1.797,4.576
		c-0.584,2.173-0.973,4.412-1.346,6.654c-0.258,1.525-0.328,3.089-0.504,4.749c0.958-0.171,1.272-0.531,0.949-1.33
		c-0.1-0.252-0.1-0.581-0.045-0.852c0.17-0.809,0.306-1.647,0.593-2.412c0.483-1.271,0.852-2.676,1.669-3.694
		c1.432-1.802,3.143-3.364,4.76-5.009c0.347-0.367,0.723-0.619,0.665-1.259c-0.036-0.442,0.144-0.967,0.368-1.359
		c0.36-0.606,0.891-1.091,1.268-1.686c0.684-1.082,1.319-2.196,1.951-3.311c0.538-0.928,1.099-1.856,1.503-2.839
		c0.355-0.889,0.527-1.863,0.741-2.81c0.544-2.284,1.227-4.538,1.528-6.853C303.959,75.074,303.897,72.67,303.942,70.277
		 M306.348,98.029c0.303-1.877,0.324-1.876-1.309-1.862c-0.098,0-0.197,0.047-0.301,0.068c-1.854,0.536-3.832,0.73-5.478,1.821
		c-1.353,0.894-2.7,1.84-3.821,2.985c-1.152,1.181-2.142,2.581-2.983,4.009c-0.564,0.919-1.11,1.992-0.903,2.998
		c1.19,0.391,2.251,0.738,3.386,1.106c0.371-0.759,0.717-1.614,1.177-2.376c1.046-1.674,2.122-3.329,3.227-4.952
		c0.532-0.785,1.232-0.964,1.699-0.579c0.738,0.6,0.315,1.216-0.017,1.808c-0.452,0.839-1.03,1.625-1.421,2.496
		c-0.853,1.876-1.645,3.789-2.413,5.7c-0.086,0.241-0.038,0.653,0.101,0.901c0.584,1.068,0.643,2.207,0.622,3.38
		c0,0.56,0.027,1.124,0.045,1.904c0.38-0.276,0.641-0.422,0.816-0.626c0.451-0.523,0.906-1.053,1.292-1.622
		c0.7-1.023,1.447-2.043,2.015-3.145c0.941-1.859,1.818-3.756,2.588-5.698c0.499-1.258,0.833-2.607,1.097-3.95
		C306.049,100.963,306.118,99.481,306.348,98.029 M305.992,68.158c0.922-1.628,2.71-9.903,2.454-11.097
		c-0.099-0.006-0.21-0.06-0.302-0.024c-2.92,0.838-5.844,1.641-8.741,2.53c-1.37,0.425-2.237,1.524-3.073,2.675
		c-0.704,0.963-0.86,2.727-2.924,2.075c0.206,0.925,0.421,1.642,0.513,2.376c0.184,1.632,0.302,3.271,0.453,4.903
		c0.046,0.504,0.288,0.68,0.721,0.388c0.318-0.221,0.587-0.506,0.886-0.735c0.898-0.707,1.82-1.344,2.656-2.095
		c0.554-0.489,0.937-1.171,1.462-1.689c0.728-0.744,1.143-1.758,2.416-2.01c1.119-0.213,2.007,0.079,2.948,0.453
		c0.685,0.262,0.968,0.697,0.531,1.435C305.892,67.489,305.978,67.751,305.992,68.158 M311.669,55.824
		c0.103,3.353,0.095,6.753-1.277,9.864c-0.889,1.995-2.242,3.769-3.265,5.704c-0.36,0.677-0.405,1.547-0.509,2.353
		c-0.27,1.983-0.472,3.994-0.779,5.986c-0.27,1.761-0.615,3.527-0.985,5.273c-0.109,0.512-0.393,0.976-0.602,1.459
		c-0.323,0.766-0.651,1.531-0.974,2.299c-0.145,0.329-0.277,0.67-0.452,0.969c-0.886,1.503-1.765,3.001-2.635,4.507
		c-0.071,0.123,0,0.323,0.007,0.657c0.909-0.258,1.742-0.491,2.567-0.755c1.054-0.326,2.087-0.667,3.127-1.023
		c1.075-0.368,2.068-0.003,2.985,0.465c0.303,0.164,0.542,0.782,0.534,1.18c-0.03,0.798-0.231,1.591-0.386,2.383
		c-0.092,0.515-0.246,1.023-0.323,1.548c-0.228,1.588-0.415,3.168-0.649,4.752c-0.539,3.859-2.425,7.14-4.234,10.451
		c-0.462,0.833-0.826,1.707-1.369,2.839c1.274-0.118,2.271-0.221,3.27-0.292c0.785-0.058,1.57-0.156,2.302,0.373
		c0.903,0.675,1.299,1.269,0.946,2.282c-0.981,2.798-1.802,5.682-3.5,8.157c-0.201,0.302-0.231,0.741-0.38,1.101
		c-0.687,1.683-1.417,3.317-2.578,4.749c-0.744,0.901-1.159,2.068-1.767,3.094c-0.681,1.18-1.415,2.342-2.089,3.536
		c-0.141,0.234-0.141,0.551-0.255,1.094c0.597-0.255,0.998-0.401,1.365-0.584c1.785-0.898,3.546-1.832,5.343-2.695
		c0.918-0.439,2.85,0.229,2.946,1.053c0.159,1.251,0.151,2.529,0.207,3.794c0.035,0.761,0.023,1.512,0.087,2.267
		c0.157,2.137-0.333,4.156-1.134,6.086c-0.919,2.252-1.816,4.539-3.041,6.616c-1.423,2.404-2.978,4.729-4.829,6.841
		c-1.905,2.159-4.144,3.893-6.363,5.647c-1.699,1.346-3.438,2.644-5.535,3.226c-1.54,0.426-3.083,1.085-4.742,0.63
		c-0.228-0.062-0.428-0.204-0.656-0.298c-0.19-0.084-0.411-0.247-0.589-0.209c-0.978,0.209-1.933,0.564-2.912,0.683
		c-1.102,0.133-2.258,0.269-3.305,0.047c-1.571-0.35-3.145-0.869-4.605-1.56c-1.086-0.51-2.106-1.306-2.953-2.175
		c-1.932-1.98-3.747-4.087-5.597-6.135c-0.877-0.964-1.737-1.948-2.623-2.896c-0.426-0.442-0.933-0.822-1.367-1.255
		c-0.738-0.723-0.426-2.016,0.558-2.406c0.975-0.384,1.968-0.71,2.706-1.584c0.21-0.26,0.754-0.249,1.162-0.29
		c1.737-0.149,3.478-0.272,5.208-0.401c0.123-0.02,0.246-0.071,0.422-0.118c-1.975-1.275-3.447-2.952-4.732-4.832
		c-2.252-3.298-3.36-7.061-4.342-10.896c-1.156-4.497-1.607-9.074-1.455-13.718c0.026-0.803,0.089-1.544-0.265-2.288
		c-0.636-1.323,0.919-2.876,2.002-2.942c2.108-0.129,4.114,0.443,6.097,1.113c0.468,0.156,0.964,0.23,1.452,0.332
		c0.054-0.065,0.109-0.146,0.155-0.217c-0.173-0.401-0.293-0.822-0.514-1.194c-1.078-1.835-2.382-3.572-3.246-5.506
		c-1.013-2.266-1.719-4.689-2.459-7.08c-0.56-1.856-0.966-3.773-1.474-5.653c-0.378-1.452,0.714-2.811,2.165-2.721
		c1.968,0.116,3.941,0.085,5.895,0.293c1.485,0.157,2.958,0.575,4.426,0.866c0.083,0.018,0.16-0.022,0.524-0.08
		c-0.533-0.483-0.9-0.901-1.343-1.177c-1.615-1.016-2.75-2.491-3.808-4.055c-1.046-1.544-2.128-3.068-3.039-4.71
		c-0.34-0.619-0.75-1.411-0.439-2.25c0.027-0.078,0.048-0.154,0.028-0.225c-0.452-1.486-0.599-3.039-1.068-4.539
		c-0.521-1.675-0.492-3.509-0.801-5.256c-0.47-2.596,0.399-5.119,0.25-7.691c-0.036-0.6,0.377-1.222,0.432-1.835
		c0.065-0.754,0.051-1.509-0.079-2.247c-0.148-0.751-0.024-2.095,0.497-2.413c0.662-0.406,1.344-0.607,2.149-0.151
		c1.196,0.676,2.506,1.142,3.699,1.813c2.238,1.261,4.414,2.634,6.65,3.902c0.304,0.177,0.989,0.204,1.152,0.008
		c0.259-0.323,0.062-0.746-0.224-1.235c-0.733-1.237-1.216-2.651-1.761-4.014c-0.19-0.491-0.22-1.058-0.421-1.545
		c-0.092-0.204-0.425-0.438-0.64-0.431c-1.835,0.011-3.093-1.074-4.192-2.366c-0.853-0.979-1.56-2.072-2.345-3.118
		c-0.921-1.224-1.918-2.404-2.76-3.686c-0.838-1.254-1.614-2.546-2.068-4.058c-0.683-2.344-1.628-4.621-2.336-6.98
		c-0.466-1.544-0.714-3.156-1.07-4.74c-0.092-0.398-0.219-0.801-0.377-1.179c-0.195-0.443-0.325-0.796,0.207-1.144
		c0.537-0.339,0.955-0.917,1.513-1.175c1.066-0.497,2.155-0.215,3.23,0.157c0.801,0.28,1.631,0.484,2.445,0.744
		c0.522,0.17,0.769-0.041,0.685-0.571c-0.098-0.606-0.313-1.204-0.4-1.814c-0.178-1.254-0.337-2.514-0.458-3.779
		c-0.256-2.475-0.6-4.964-0.665-7.456c-0.054-1.728,0.3-3.471,0.439-5.211c0.085-1.052,0.115-2.11,0.146-3.163
		c0.044-0.969,0.568-1.838,1.424-2.114c1.303-0.408,2.475-0.317,3.549,0.784c1.207,1.245,2.588,2.296,3.836,3.503
		c1.23,1.194,2.363,2.484,3.563,3.729c0.16,0.16,0.405,0.239,0.602,0.355c0.104-0.201,0.2-0.415,0.292-0.624
		c0.689-1.62,1.346-3.24,2.075-4.844c0.454-1.028,0.996-2.036,1.519-3.039c0.189-0.377,0.414-0.725,0.636-1.078
		c0.081-0.137,0.217-0.259,0.271-0.409c0.276-0.803,0.504-1.62,0.806-2.404c0.368-0.937,1.761-1.359,2.683-1.138
		c1.23,0.316,1.407,1.325,1.841,2.237c0.779,1.636,1.694,3.199,2.442,4.841c0.931,2.062,2.326,3.9,2.71,6.246
		c0.177,1.116,0.752,2.163,1.143,3.243c0.41,1.16,0.844,2.315,1.213,3.499c0.385,1.22,0.786,2.45,1.019,3.717
		c0.235,1.319,0.252,2.692,0.386,4.044c0.027,0.3,0.112,0.583,0.213,1.106c0.979-0.851,1.767-1.535,2.57-2.214
		c0.075-0.068,0.171-0.166,0.255-0.173c1.129-0.101,2.247-0.195,3.53-0.302c-0.065,0.809-0.228,1.485-0.163,2.141
		c0.437,3.648-0.513,7.058-1.622,10.437c-0.394,1.2-0.32,2.345,0.054,3.539c0.37,1.153,0.677,2.415,0.03,3.53
		c-0.7,1.197-1.607,2.261-2.419,3.397c-0.208,0.309-0.368,0.655-0.613,1.078c1.607-0.47,2.979-0.944,4.386-1.245
		c0.958-0.209,2.005,0.013,2.933-0.269c1.469-0.451,2.819-0.239,4.149,0.374C311.24,55.097,311.66,55.512,311.669,55.824"/>
	<path clip-path="url(#SVGID_2_)" fill="#FFFFFF" d="M308.446,57.062c0.256,1.194-1.532,9.468-2.454,11.096
		c-0.013-0.407-0.099-0.668,0-0.814c0.438-0.738,0.154-1.173-0.531-1.436c-0.94-0.374-1.829-0.665-2.947-0.452
		c-1.274,0.252-1.689,1.266-2.416,2.01c-0.526,0.517-0.909,1.2-1.463,1.689c-0.836,0.751-1.758,1.388-2.656,2.094
		c-0.299,0.23-0.567,0.515-0.886,0.735c-0.433,0.293-0.674,0.116-0.721-0.388c-0.151-1.631-0.269-3.27-0.453-4.903
		c-0.092-0.733-0.306-1.45-0.513-2.375c2.065,0.652,2.22-1.112,2.925-2.075c0.836-1.152,1.702-2.25,3.072-2.676
		c2.898-0.889,5.821-1.692,8.741-2.529C308.236,57.001,308.348,57.055,308.446,57.062"/>
	<path clip-path="url(#SVGID_2_)" fill="#FFFFFF" d="M305.04,96.167c1.633-0.014,1.612-0.015,1.308,1.862
		c-0.229,1.452-0.298,2.934-0.581,4.366c-0.264,1.343-0.597,2.692-1.097,3.949c-0.769,1.943-1.646,3.84-2.588,5.699
		c-0.567,1.102-1.314,2.122-2.015,3.145c-0.386,0.569-0.84,1.099-1.291,1.622c-0.175,0.204-0.436,0.35-0.817,0.626
		c-0.018-0.78-0.045-1.344-0.045-1.904c0.021-1.173-0.038-2.312-0.622-3.381c-0.139-0.247-0.187-0.659-0.101-0.9
		c0.768-1.911,1.561-3.824,2.413-5.7c0.391-0.871,0.969-1.657,1.422-2.496c0.332-0.592,0.754-1.208,0.016-1.808
		c-0.466-0.385-1.166-0.206-1.699,0.579c-1.105,1.622-2.181,3.278-3.226,4.952c-0.461,0.762-0.806,1.617-1.177,2.376
		c-1.135-0.368-2.196-0.715-3.387-1.106c-0.207-1.006,0.34-2.079,0.904-2.998c0.841-1.428,1.831-2.828,2.982-4.009
		c1.121-1.145,2.469-2.091,3.821-2.985c1.647-1.091,3.625-1.285,5.478-1.821C304.842,96.214,304.941,96.167,305.04,96.167"/>
	<path clip-path="url(#SVGID_2_)" fill="#FFFFFF" d="M302.439,69.183c1.114-0.309,1.536-0.095,1.503,1.094
		c-0.045,2.394,0.017,4.797-0.296,7.164c-0.3,2.315-0.984,4.568-1.527,6.853c-0.214,0.946-0.386,1.921-0.741,2.81
		c-0.404,0.982-0.966,1.91-1.503,2.838c-0.632,1.116-1.268,2.229-1.951,3.311c-0.377,0.595-0.909,1.081-1.268,1.686
		c-0.225,0.392-0.404,0.917-0.368,1.36c0.057,0.639-0.318,0.892-0.666,1.258c-1.616,1.645-3.327,3.207-4.759,5.009
		c-0.817,1.019-1.186,2.424-1.669,3.694c-0.287,0.765-0.423,1.603-0.594,2.412c-0.054,0.271-0.054,0.6,0.046,0.853
		c0.323,0.798,0.009,1.158-0.949,1.329c0.176-1.66,0.246-3.223,0.504-4.749c0.372-2.241,0.762-4.481,1.346-6.654
		c0.421-1.574,1.126-3.083,1.797-4.575c1.651-3.68,3.356-7.338,5.056-10.996c0.433-0.949,0.905-1.883,1.355-2.832
		c0.202-0.432,0.294-0.88-0.187-1.217c-0.471-0.338-0.844-0.075-1.161,0.261c-0.291,0.302-0.567,0.64-0.76,1.007
		c-1.807,3.436-3.717,6.833-5.356,10.375c-1.52,3.275-3.212,6.525-3.924,10.14c-0.338,1.652-0.465,3.351-0.697,5.028
		c-0.039,0.334-0.088,0.66-0.186,1.194c-0.602-0.409-1.112-0.697-1.554-1.063c-1.162-0.958-1.278-2.298-1.17-3.68
		c0.141-1.899,0.276-3.813,0.559-5.709c0.172-1.162,0.706-2.274,0.938-3.45c0.468-2.33,1.553-4.414,2.407-6.589
		c0.669-1.69,1.529-3.264,2.635-4.693c0.788-1.032,1.408-2.207,2.22-3.213c1.075-1.346,2.4-2.502,3.374-3.919
		c1.028-1.496,2.566-2.359,3.772-3.604C299.709,70.838,300.861,69.625,302.439,69.183"/>
	<path clip-path="url(#SVGID_2_)" fill="#FFFFFF" d="M304.884,119.95c0.054,0.474,0.237,0.933,0.106,1.269
		c-0.681,1.743-1.405,3.471-2.164,5.172c-0.72,1.572-1.448,3.134-2.246,4.663c-0.684,1.313-1.467,2.558-2.19,3.848
		c-0.889,1.576-1.698,3.207-2.68,4.734c-0.4,0.618-1.216,0.942-1.734,1.509c-0.601,0.657-1.064,1.448-1.624,2.153
		c-0.661,0.835-1.358,1.662-2.085,2.45c-0.196,0.207-0.56,0.255-0.845,0.367c-0.372-1.369-0.767-2.623-1.034-3.892
		c-0.279-1.311,0.119-2.584,0.597-3.756c1.176-2.895,2.391-5.774,4.439-8.164c0.603-0.701,1.325-1.298,1.987-1.952
		c0.429-0.427,0.88-0.923,0.429-1.547c-0.201-0.268-0.711-0.461-1.054-0.428c-0.928,0.099-1.706,0.552-2.316,1.346
		c-1.026,1.32-2.239,2.49-3.124,3.893c-1.112,1.715-1.975,3.604-3.009,5.539c-0.495-0.782-1.063-1.533-1.438-2.383
		c-0.159-0.358,0.105-0.919,0.207-1.381c0.25-1.245,0.658-2.472,0.735-3.726c0.055-0.786-0.405-1.607-0.547-2.42
		c-0.045-0.286,0.063-0.732,0.272-0.892c1.003-0.775,2.06-1.478,3.098-2.207c0.321-0.217,0.607-0.481,0.94-0.668
		c0.636-0.368,1.232-0.69,2.084-0.548c0.732,0.109,1.544-0.198,2.312-0.383c0.337-0.07,0.634-0.29,0.786-0.596
		c0.17-0.194,0.295-0.455,0.5-0.578c0.391-0.245,0.999-0.166,1.056-0.877c0.005-0.098,0.311-0.187,0.497-0.228
		c1.796-0.432,3.595-0.887,5.399-1.245c0.725-0.142,1.487-0.065,2.226-0.039c0.203,0.013,0.406,0.217,0.711,0.386
		c-0.454,0.313-1.287,0.056-0.877,0.933C304.486,120.191,304.659,120.083,304.884,119.95"/>
	<path clip-path="url(#SVGID_2_)" fill="#FFFFFF" d="M305.539,143.203c-0.21,1.675-0.432,3.346-0.628,5.018
		c-0.241,2.067-1.449,3.705-2.354,5.454c-1.023,1.987-2.185,3.922-3.468,5.737c-0.975,1.372-2.196,2.548-3.371,3.75
		c-1.138,1.167-2.268,2.377-3.557,3.366c-1.597,1.225-3.328,2.251-5.012,3.347c-0.155,0.095-0.362,0.095-0.595,0.155
		c-0.172-0.99,0.551-1.474,0.971-2.067c1.23-1.754,2.562-3.441,3.773-5.202c1.354-2.006,2.621-4.066,3.901-6.101
		c1.454-2.29,2.831-4.648,4.373-6.865c1.185-1.721,2.083-3.691,3.801-4.985c0.45-0.345,0.719-0.923,1.126-1.343
		c0.193-0.21,0.5-0.296,0.755-0.438C305.349,143.084,305.451,143.141,305.539,143.203"/>
	<path clip-path="url(#SVGID_2_)" fill="#FFFFFF" d="M300.478,35.311c0.472-0.377,0.762-0.069,0.727,0.445
		c-0.116,2.158-0.235,4.324-0.418,6.479c-0.054,0.62-0.268,1.264-0.558,1.817c-0.122,0.25-0.595,0.465-0.901,0.445
		c-1.121-0.059-2.258-0.382-3.358-0.273c-0.732,0.083-1.495,0.64-2.088,1.15c-0.649,0.567-1.22,1.284-1.668,2.037
		c-0.963,1.615-1.885,3.304-1.123,5.309c0.63,1.674,1.306,3.362,3.26,3.845c0.583,0.136,1.191,0.106,1.788,0.163
		c0.076,0.097,0.163,0.206,0.246,0.299c-0.385,0.86-0.697,1.766-1.166,2.572c-0.439,0.765-1.001,1.485-1.592,2.138
		c-0.666,0.734-1.211,0.611-1.683-0.279c-1.407-2.581-3.134-4.926-5.001-7.14c-0.356-0.445-0.839-0.784-1.159-1.254
		c-0.156-0.235-0.195-0.691-0.079-0.949c0.491-1.162,1.082-2.291,1.582-3.444c0.231-0.507,0.231-1.136,0.49-1.612
		c0.533-0.938,1.132-1.859,1.808-2.711c1.07-1.354,2.179-2.684,3.341-3.956c0.423-0.451,1.051-0.7,1.561-1.059
		c0.569-0.391,1.237-0.688,1.66-1.204C297.321,36.714,299.121,36.383,300.478,35.311"/>
	<path clip-path="url(#SVGID_2_)" fill="#ED1D24" d="M299.536,47.647c0.709,1.221,0.604,2.467,0.238,3.818
		c-0.514,1.992-1.711,3.199-3.564,3.246c-1.736,0.042-2.499-1.287-2.771-2.713c-0.057-0.284-0.027-0.577-0.033-0.862
		c-0.334-3.472,2.781-4.76,5.413-4.118C299.091,47.078,299.382,47.375,299.536,47.647"/>
	<path clip-path="url(#SVGID_2_)" fill="#FFFFFF" d="M301.59,142.866c0.084,0.115,0.158,0.223,0.231,0.337
		c-0.391,0.523-0.7,1.151-1.186,1.549c-1.405,1.203-2.179,2.816-3.121,4.363c-1.5,2.468-3.088,4.891-4.645,7.339
		c-1.295,2.04-2.578,4.078-3.876,6.094c-0.279,0.413-0.651,0.765-0.971,1.156c-0.984,1.2-1.949,2.416-2.942,3.596
		c-0.219,0.255-0.523,0.423-0.864,0.691c-0.364-2.577,0.534-4.699,1.242-6.884c0.985-3.013,2.692-5.625,4.299-8.293
		c0.737-1.2,1.524-2.384,2.442-3.432c0.822-0.952,1.808-1.761,2.801-2.538c1.272-0.998,2.577-1.975,3.937-2.825
		C299.75,143.512,300.712,143.243,301.59,142.866"/>
	<path clip-path="url(#SVGID_2_)" fill="#FFFFFF" d="M294.654,31.965c0.078,1.496-0.02,2.988-0.122,4.487
		c-0.015,0.309-0.337,0.656-0.589,0.901c-1.11,1.047-2.295,2.034-3.379,3.125c-0.686,0.709-1.234,1.553-1.869,2.304
		c-0.157,0.184-0.471,0.381-0.654,0.334c-0.201-0.048-0.415-0.358-0.472-0.599c-0.304-1.122-0.521-2.284-0.83-3.412
		c-0.32-1.144-0.725-2.276-1.069-3.428c-0.196-0.664-0.359-1.34-0.549-2.061c2.516-0.744,3.93-2.858,3.613-5.197l5.307-0.328
		c0.011,0.109,0.024,0.202,0.041,0.303C294.275,29.597,294.595,30.777,294.654,31.965"/>
	<path clip-path="url(#SVGID_2_)" fill="#FFFFFF" d="M294.041,28.091l-5.307,0.328c-0.071-0.53-0.23-1.081-0.486-1.623
		c-0.286-0.587-0.582-1.165-0.907-1.726c-0.738-1.256-1.935-1.66-3.265-1.781c-1.094-0.097-2.2-0.14-3.29-0.253
		c-0.191-0.016-0.479-0.207-0.522-0.376c-0.049-0.228,0.029-0.646,0.171-0.719c0.744-0.372,0.868-1.101,1.02-1.764
		c0.711-3.166,2.329-5.902,3.758-8.73c0.176-0.352,0.37-0.705,0.551-1.052c0.256-0.445,0.549-0.533,0.863-0.071
		c0.465,0.664,0.963,1.303,1.352,2.003c0.89,1.612,1.79,3.229,2.54,4.914c0.771,1.746,1.362,3.575,2.032,5.364
		c0.407,1.114,0.861,2.193,1.178,3.32C293.919,26.623,293.943,27.361,294.041,28.091"/>
	<path clip-path="url(#SVGID_2_)" fill="#ED1D24" d="M295.181,112.758c0.589,1.385,0.735,2.876,0.507,4.286
		c-0.167,1.099-0.73,2.193-1.684,2.944c-0.809,0.637-1.607,0.779-2.659,0.578c-0.86-0.172-1.746-0.299-2.191-1.032
		c-0.568-0.96-0.868-2.083-1.28-3.136c0.069-0.036,0.148-0.063,0.222-0.091c-0.177-1.765,0.852-2.903,1.975-3.978
		c0.738-0.686,1.503-1.24,2.591-1.225C293.405,111.128,294.881,112.053,295.181,112.758"/>
	<path clip-path="url(#SVGID_2_)" fill="#FFFFFF" d="M291.882,72.824c0.018,0.628-0.152,1.26-0.229,1.903h-0.175
		c-0.142-0.534-0.302-1.075-0.444-1.612c-0.497-2.011-1.354-3.834-2.513-5.531c-1.695-2.444-3.299-4.95-4.974-7.411
		c-0.27-0.422-0.602-0.844-0.997-1.136c-0.744-0.575-1.561-0.198-1.597,0.754c-0.027,0.518,0.036,1.129,0.299,1.541
		c1.326,2.101,2.73,4.161,4.13,6.218c0.578,0.87,1.205,1.714,1.807,2.57c1.199,1.717,1.436,3.787,1.934,5.755
		c0.031,0.106-0.338,0.461-0.44,0.433c-1.046-0.313-2.083-0.636-3.079-1.068c-0.353-0.146-0.661-0.554-0.836-0.925
		c-0.469-0.961-0.681-2.12-1.331-2.899c-0.669-0.813-1.729-1.283-2.62-1.883c-0.382-0.269-0.86-0.433-1.19-0.76
		c-1.721-1.666-2.25-3.922-2.791-6.163c-0.246-1.039-0.718-2.022-0.908-3.063c-0.296-1.609-0.489-3.246-0.622-4.876
		c-0.163-2.009-0.235-4.032-0.306-6.061c-0.017-0.292,0.193-0.843,0.353-0.861c0.415-0.061,0.985-0.044,1.292,0.2
		c1.418,1.153,2.775,2.377,4.132,3.606c0.896,0.808,1.8,1.628,2.645,2.505c1.304,1.34,2.635,2.665,3.797,4.13
		c2.288,2.874,3.48,6.31,4.379,9.859c0.015,0.083,0.015,0.165,0.03,0.255C291.716,69.804,291.846,71.307,291.882,72.824"/>
	<path clip-path="url(#SVGID_2_)" fill="#FFFFFF" d="M287.741,81.966c-0.124,0.142-0.247,0.285-0.37,0.427
		c-0.937,0.122-1.649-0.041-2.093-1.118c-0.243-0.625-0.763-1.2-1.293-1.622c-0.533-0.431-0.503-0.782-0.334-1.366
		c0.195-0.731,0.664-0.898,1.256-0.759c1.322,0.314,2.618,0.694,4.171,1.109c-0.706,1.111-1.352,2.152-1.959,3.115
		C287.287,81.812,287.518,81.89,287.741,81.966"/>
	<path clip-path="url(#SVGID_2_)" fill="#ED1D24" d="M284.967,25.95c0.898,0.877,1.231,2.019,1.133,3.243
		c-0.116,1.351-1.041,2.102-2.526,2.231c-0.113,0.013-0.222,0.01-0.336,0.013c-1.037-0.013-2.054,0.065-2.819-0.967
		c-0.477-0.648-0.8-2.13-0.657-2.952c0.347-1.847,1.806-2.003,3.128-2.372C283.729,24.918,284.39,25.387,284.967,25.95"/>
	<path clip-path="url(#SVGID_2_)" fill="#FFFFFF" d="M288.041,121.312c0.122,0.16,0.074,0.684-0.078,0.785
		c-1.007,0.771-2.066,1.468-3.189,2.238c-1.422-4.116-4.12-7.233-6.947-10.295c-1.667-1.805-3.164-3.761-5.146-5.248
		c-1.036-0.774-2.124-0.6-3.231-0.584c-0.217,0.008-0.591,0.369-0.597,0.578c-0.011,0.313,0.169,0.731,0.415,0.906
		c0.662,0.505,1.489,0.815,2.076,1.385c1.025,1.014,1.959,2.164,2.893,3.293c1.807,2.202,3.601,4.425,5.389,6.649
		c0.255,0.323,0.483,0.679,0.654,0.921c-1.552,0.837-3.077,1.652-4.573,2.503c-0.338,0.197-0.548,0.636-0.878,0.864
		c-0.196,0.131-0.608,0.214-0.747,0.108c-2.386-1.975-4.523-4.216-5.926-7.028c-1.286-2.559-2.37-5.235-3.425-7.91
		c-0.591-1.49-1.026-3.05-1.433-4.605c-0.242-0.925-0.286-1.91-0.423-2.858c-0.077-0.54,0.231-0.735,0.663-0.744
		c0.549-0.001,1.089,0.06,1.646,0.085c1.142,0.033,2.288,0.054,3.424,0.108c2.795,0.147,5.371,1.057,7.826,2.376
		c1.057,0.582,2.146,1.089,3.206,1.663c0.249,0.14,0.415,0.436,0.646,0.656c0.187,0.19,0.368,0.451,0.602,0.551
		c1.767,0.779,3.14,2.06,4.406,3.512c0.156,0.187,0.334,0.339,0.509,0.51c0.83,0.822,0.522,1.833,0.257,2.706
		c-0.572,1.833-0.296,3.389,0.695,5.055C287.149,120.152,287.59,120.716,288.041,121.312"/>
	<path clip-path="url(#SVGID_2_)" fill="#FFFFFF" d="M284.196,39.913c0.925,2.084,1.099,4.256,0.973,6.521
		c-0.072,1.333-0.262,2.543-0.807,3.759c-0.285,0.626-0.617,0.559-1.023,0.352c-1.271-0.605-2.136-1.698-2.92-2.836
		c-0.231-0.327-0.275-0.838-0.293-1.283c-0.16-2.991-1.047-5.802-1.883-8.638c-0.667-2.282-1.306-4.577-2.044-6.83
		c-0.133-0.385-0.299-0.776-0.478-1.145l1.569-0.13c0.086,0.214,0.201,0.424,0.352,0.638c0.445,0.643,0.611,1.506,1.08,2.129
		c0.53,0.707,1.265,1.211,2.186,1.347c0.3,0.051,0.712,0.298,0.84,0.564C282.595,36.198,283.363,38.067,284.196,39.913"/>
	<path clip-path="url(#SVGID_2_)" fill="#FFFFFF" d="M287.395,149.436c-0.084,0.009-0.167,0.023-0.258,0.033
		c0.364,1.615-0.472,2.788-1.351,3.927c-0.329,0.435-0.665,0.483-1.037-0.045c-1.047-1.509-2.103-3-3.232-4.437
		c-0.558-0.723-1.237-1.352-1.921-1.989c-1.577-1.474-2.792-3.249-3.984-5.056c-0.919-1.4-1.885-2.773-2.878-4.115
		c-1.382-1.874-2.814-3.696-4.188-5.57c-1.378-1.893-2.736-3.794-4.049-5.742c-0.326-0.476-0.472-1.102-0.564-1.686
		c-0.021-0.163,0.53-0.626,0.727-0.578c1.058,0.32,2.105,0.735,3.145,1.167c1.029,0.427,2.053,0.876,3.067,1.37
		c0.499,0.244,0.96,0.597,1.435,0.899c0.092,0.059,0.187,0.215,0.264,0.206c1.313-0.198,0.697,0.676,0.589,1.178
		c-0.351,1.65-0.565,3.272,0.123,4.896c0.459,1.088,1.315,1.765,2.226,2.336c1.351,0.849,2.825,1.102,4.386,0.686
		c0.529-0.141,1.094-0.166,1.622-0.306c0.842-0.228,1.384,0.276,1.669,0.884c1.072,2.275,2.581,4.326,3.064,6.876
		C286.565,146.077,287.01,147.746,287.395,149.436"/>
	<path clip-path="url(#SVGID_2_)" fill="#FFFFFF" d="M285.056,84.133c0.429,0.779-0.269,1.527-0.505,2.276
		c-0.037,0.098-0.154,0.16-0.189,0.261c-0.94,2.458-1.867,4.933-2.904,7.663c-0.611-0.884-1.193-1.577-1.607-2.353
		c-1.731-3.246-3.397-6.531-5.12-9.771c-0.608-1.163-1.208-2.333-1.952-3.372c-1.921-2.663-3.136-5.664-4.325-8.697
		c-0.2-0.5-0.401-0.993-0.576-1.498c-0.055-0.171-0.018-0.362-0.024-0.546c0.172,0,0.362-0.037,0.513,0.021
		c1.791,0.744,3.389,1.829,4.933,3.026c0.7,0.546,0.863,0.975,0.448,1.832c-0.492,0.992-0.344,2.101-0.176,3.233
		c0.197,1.402,0.914,2.515,1.56,3.693c0.104,0.182,0.343,0.319,0.551,0.437c0.557,0.331,1.129,0.646,1.72,0.942
		c0.82,0.415,1.629,0.216,2.43-0.104c0.631-0.255,1.269-0.477,1.895-0.722c-0.105,0.154-0.217,0.304-0.324,0.45
		c0.412,0.22,0.824,0.424,1.242,0.646C283.713,82.138,284.484,83.087,285.056,84.133"/>
	<path clip-path="url(#SVGID_2_)" fill="#ED1D24" d="M282.652,73.924c0.466,1.248-0.697,1.959-0.53,3.003
		c-0.997,0.897-1.774,2.179-3.376,2.066c-1.027-0.081-1.711-0.668-2.233-1.533c-0.887-1.509-0.752-2.975,0.121-4.453
		c0.425-0.714,1.085-0.877,1.771-0.986c0.382-0.059,0.782-0.018,1.171-0.035c0-0.033,0-0.057,0.003-0.071
		c0.486,0.038,0.996,0.017,1.466,0.147C281.976,72.293,282.299,72.987,282.652,73.924"/>
	<path clip-path="url(#SVGID_2_)" fill="#FFFFFF" d="M283.618,155.905c0.208,0.226,0.207,0.815,0.084,1.148
		c-0.371,1.015-0.879,1.973-1.261,2.975c-0.218,0.551-0.445,0.588-0.836,0.234c-0.353-0.308-0.725-0.59-1.044-0.927
		c-1.166-1.248-2.647-1.945-4.172-2.574c-2.733-1.132-5.01-3.01-7.259-4.882c-2.447-2.012-4.225-4.624-5.18-7.691
		c-0.894-2.869-1.52-5.834-2.166-8.787c-0.398-1.817-0.687-3.683-0.88-5.536c-0.122-1.119,0.033-2.268,0.065-3.576
		c0.353,0.17,0.673,0.238,0.826,0.425c0.662,0.883,1.261,1.798,1.903,2.69c0.62,0.858,1.291,1.691,1.891,2.568
		c0.765,1.099,1.468,2.218,2.216,3.34c1.523,2.268,3.058,4.525,4.584,6.8c0.798,1.192,1.519,2.446,2.393,3.576
		c1.526,1.979,3.101,3.933,4.743,5.824C280.834,153.024,282.293,154.408,283.618,155.905"/>
	<path clip-path="url(#SVGID_2_)" fill="#ED1D24" d="M283.044,129.393c0.101,0.978,0.142,1.9-0.276,2.855
		c-0.445,0.989-1.297,1.422-2.095,1.894c-0.54,0.331-1.261,0.353-1.886,0.524c-2.341-0.147-3.864-1.404-3.204-4.472
		c0.361-1.669,0.984-3.205,2.2-4.299c0.7-0.613,1.781-0.78,2.703-1.123c0.109-0.041,0.309,0.112,0.424,0.208
		C282.238,126.129,282.846,127.645,283.044,129.393"/>
	<path clip-path="url(#SVGID_2_)" fill="#FFFFFF" d="M280.286,97.38c0.595,0.456,0.078,1.043,0.149,1.56
		c0.014,0.088-0.502,0.357-0.777,0.357c-2.7-0.064-5.188-0.861-7.538-2.21c-1.077-0.622-1.836-1.414-2.39-2.564
		c-0.479-1.009-1.206-1.879-1.825-2.814c-0.116-0.181-0.28-0.391-0.297-0.589c-0.044-1.101-0.513-1.998-1.013-2.961
		c-0.51-0.976-0.546-2.217-0.809-3.324c-0.235-1.063-0.49-2.125-0.742-3.186c-0.509-2.095-0.812-4.209-0.54-6.382
		c0.232-1.933,0.439-3.872,0.676-5.803c0.024-0.194,0.137-0.374,0.197-0.523c1.259,2.828,2.462,5.62,3.745,8.374
		c1.18,2.562,2.453,5.082,3.695,7.625c0.255,0.509,0.578,0.975,0.91,1.439c1.221,1.651,2.024,3.511,2.724,5.441
		C277.253,94.015,278.406,95.961,280.286,97.38"/>
	<path clip-path="url(#SVGID_2_)" fill="#FFFFFF" d="M279.656,102.113c0.08,0.225,0.232,0.456,0.225,0.687
		c0,0.211-0.119,0.523-0.285,0.614c-0.443,0.241-2.044-0.581-2.193-1.081c-0.03-0.101,0.009-0.217,0.024-0.387
		C278.177,102.001,278.909,102.059,279.656,102.113"/>
	<path clip-path="url(#SVGID_2_)" fill="#FFFFFF" d="M280.168,162.559c0.549,0.462,0.896,1.032,0.845,1.787
		c-0.087,1.35-0.196,2.71-0.305,4.062c-0.133,1.585-1.062,2.558-2.629,2.69c-0.89,0.061-1.799,0.045-2.689,0.024
		c-0.207,0-0.422-0.098-0.628-0.174c-0.542-0.201-1.076-0.413-1.518-0.59c-0.35-0.297-0.628-0.691-0.969-0.77
		c-1.338-0.271-2.284-1.189-3.232-2.06c-1.84-1.696-3.477-3.569-4.872-5.698c-0.558-0.86-1.322-1.583-2.043-2.417
		c1.835-1.298,3.715-1.982,5.932-1.564c1.088,0.201,2.228,0.079,3.322,0.184c0.534,0.061,1.044,0.326,1.551,0.51
		c1.553,0.565,3.133,1.081,4.65,1.727c0.837,0.353,1.587,0.925,2.075,1.761C279.78,162.239,279.987,162.402,280.168,162.559"/>
	<path clip-path="url(#SVGID_2_)" fill="#FFFFFF" d="M277.128,22.777c0.638,1.12,1.44,2.271,0.492,3.856
		c-0.51,0.849-0.762,1.965-0.331,3.05l-1.569,0.129c-0.297-0.62-0.635-1.228-0.933-1.844c-0.046-0.107-0.119-0.196-0.179-0.291
		c-0.385-0.545-0.993-0.881-1.503-0.554c-0.353,0.234-0.574,0.967-0.544,1.452c0.041,0.714,0.335,1.428,0.557,2.123
		c0.69,2.075,1.398,4.132,2.092,6.2c0.744,2.198,1.492,4.391,2.202,6.613c0.181,0.573,0.246,1.195,0.382,1.9
		c-0.874-0.252-1.574-0.483-2.296-0.64c-0.711-0.157-1.438-0.364-2.158-0.326c-0.898,0.06-1.429-0.269-1.696-1.106
		c-0.54-1.737-1.141-3.456-1.588-5.217c-0.413-1.691-0.727-3.414-0.973-5.134c-0.238-1.644-0.361-3.298-0.48-4.944
		c-0.119-1.567-0.207-3.142-0.244-4.722c-0.025-1.595-0.031-3.191,0.054-4.784c0.048-0.857,0.293-1.702,0.499-2.543
		c0.139-0.516,0.444-0.666,1.008-0.469c1.751,0.609,3.066,1.832,4.235,3.22C275.222,20.023,276.291,21.336,277.128,22.777"/>
	<path clip-path="url(#SVGID_2_)" fill="#FFFFFF" d="M272.796,56.854c0.021,0.356,0.021,0.734,0.035,1.099
		c-0.073,0.068-0.139,0.135-0.201,0.202c-0.813-0.567-1.696-1.062-2.425-1.727c-1.627-1.489-2.815-3.329-3.767-5.351
		c-0.567-1.203-1.335-2.322-1.797-3.573c-0.678-1.879-1.224-3.822-1.707-5.77c-0.279-1.101-0.361-2.26-0.42-3.4
		c-0.057-1.118,0.151-1.273,1.218-1.273c0.693,0.009,1.39-0.058,2.071,0.046c0.452,0.071,0.88,0.361,1.353,0.572
		c0.153,1.122,0.16,2.305,0.473,3.4c0.326,1.125,0.884,2.205,1.455,3.23c0.584,1.015,1.308,1.954,1.972,2.926
		c0.048,0.072,0.075,0.181,0.128,0.214c1.289,0.575,1.232,1.592,1.197,2.857C272.324,52.482,272.636,54.665,272.796,56.854"/>
	<path clip-path="url(#SVGID_2_)" fill="#842C00" d="M33.783,125.4c0.263-0.961,0.516-1.904-0.371-2.751
		c-0.353-0.336-0.54-0.877-0.726-1.352c-0.499-1.265-0.833-2.597-1.435-3.812c-0.703-1.468-1.595-2.836-2.41-4.248
		c-0.619-1.085-1.221-2.176-1.853-3.237c-0.584-0.977-1.159-1.965-1.805-2.904c-0.34-0.496-0.382-1.248-1.142-1.468
		c-0.307,1.9-0.041,5.232,0.802,7.74c0.067,0.184,0.082,0.377,0.151,0.561c0.488,1.513,0.885,3.067,1.514,4.519
		c0.554,1.285,1.286,2.509,2.078,3.671c1.005,1.473,2.128,2.877,3.267,4.247c0.323,0.408,0.894,0.616,1.346,0.907
		C33.451,126.481,33.63,125.945,33.783,125.4 M36.526,115.603c0.086-0.253,0-0.631-0.13-0.892c-0.407-0.846-1.053-1.621-1.252-2.499
		c-0.355-1.536-1.362-2.339-2.605-3.039c-1.425-0.803-2.461-2-3.314-3.397c-0.402-0.669-0.453-1.629-1.413-1.917
		c-0.317-0.092-0.605-0.326-0.908-0.459c-0.151-0.062-0.4-0.113-0.513-0.033c-0.106,0.088-0.177,0.362-0.112,0.485
		c0.708,1.578,1.378,3.173,2.194,4.699c0.72,1.36,1.645,2.611,2.416,3.94c1.188,2.06,2.306,4.161,3.485,6.228
		c0.167,0.287,0.524,0.464,0.813,0.705C35.698,117.969,36.144,116.809,36.526,115.603 M35.643,155.345
		c0.762-0.159,0.661-0.508,0.463-0.979c-0.578-1.311-1.132-2.624-1.74-3.919c-0.827-1.752-1.65-3.488-2.529-5.213
		c-0.648-1.267-1.405-2.478-2.054-3.747c-0.593-1.162-1.099-2.364-1.694-3.537c-0.105-0.225-0.401-0.371-0.615-0.564
		c-0.113,0.066-0.222,0.138-0.323,0.217c0.194,1.159,0.37,2.328,0.599,3.477c0.199,0.957,0.478,1.883,0.703,2.825
		c0.513,2.203,0.907,4.425,1.55,6.589c0.64,2.183,1.523,4.298,2.306,6.436c0.08,0.198,0.244,0.374,0.353,0.567
		c0.225-0.152,0.513-0.255,0.632-0.448C33.853,156.154,34.662,155.563,35.643,155.345 M36.129,107.218
		c2.163-0.751,3.234-2.257,3.249-4.936c0.021-2.153-1.702-3.985-3.842-4.084c-0.03-0.078-0.063-0.152-0.077-0.217
		c-0.747,0.291-1.647,0.394-2.2,0.898c-1.604,1.396-2.359,3.154-1.965,5.388C31.701,106.551,34.328,107.848,36.129,107.218
		 M39.647,121.375c0.299-2.36,0.606-4.723,0.914-7.088c-0.078-0.059-0.155-0.113-0.234-0.181c-0.237,0.14-0.561,0.231-0.695,0.445
		c-0.298,0.5-0.569,1.031-0.732,1.585c-0.649,2.265-1.281,4.523-1.861,6.792c-0.658,2.502-0.866,5.045-0.527,7.627
		c0.18,1.346,0.287,2.69,0.399,4.036c0.077,0.975,0.801,1.845,1.875,2.087c0.028-0.651,0.1-1.286,0.079-1.918
		c-0.024-1.268-0.211-2.536-0.142-3.788c0.119-2.043,0.383-4.096,0.589-6.133C39.43,123.686,39.516,122.521,39.647,121.375
		 M43.442,37.76c0.856-0.819,1.115-2.03,1.162-3.243c-0.047-0.521-0.024-1.044-0.149-1.544c-0.408-1.39-1.271-2.724-3.009-2.543
		c-1.377,0.147-2.859,1.653-3.005,3.035c-0.032,0.377-0.296,0.732-0.456,1.099c-0.146,0.36-0.459,0.727-0.428,1.064
		c0.155,1.468,0.544,2.346,2.038,2.958C41.068,39.177,42.402,38.756,43.442,37.76 M45.493,28.686
		c0.046-0.524,0.057-1.045,0.078-1.567h-0.014c0.022-0.472,0.065-0.946,0.065-1.408c0.014-1.723-0.357-3.365-1.227-4.848
		c-0.721-1.244-1.521-2.471-2.381-3.621c-1.086-1.444-2.166-2.9-3.773-3.839c-0.748-0.451-1.601-0.815-2.254-1.393
		c-0.581-0.507-0.728-0.198-1.013,0.214c-0.391,0.562-0.466,1.184-0.469,1.863c-0.041,2.078-0.299,4.169-0.184,6.238
		c0.099,1.843,0.531,3.683,0.92,5.509c0.178,0.852,0.488,1.72,0.933,2.475c0.394,0.662,1.218,0.49,1.544-0.194
		c0.575-1.207,2.532-1.758,3.688-1.036c1.074,0.665,2.129,1.343,3.196,2.014C45.093,29.421,45.432,29.273,45.493,28.686
		 M44.441,47.51c0.711-1.213,0.344-2.216-0.179-3.219c-0.375-0.7-0.749-1.404-1.036-2.138c-0.256-0.667-0.652-0.789-1.331-0.705
		c-0.691,0.086-1.497,0.154-2.111-0.108c-1.17-0.507-2.387-1.108-3.309-1.958c-0.741-0.683-1.608-1.399-1.832-2.558
		c-0.316-1.623-0.493-3.205,0.031-4.817c0.098-0.292,0.061-0.775-0.116-0.985c-0.768-0.888-1.428-1.891-2.567-2.451
		c-1.088-0.524-2.093-1.201-3.162-1.769c-0.827-0.445-1.684-0.86-2.562-1.196c-0.77-0.28-1.573-0.571-2.366-0.625
		c-0.767-0.045-1.06,0.709-1.355,1.319c-0.067,0.121-0.176,0.213-0.23,0.335c-0.099,0.284-0.238,0.579-0.262,0.881
		c-0.035,0.402,0,0.823,0.027,1.229c0.127,1.42,0.223,2.837,0.387,4.245c0.112,0.905,0.331,1.785,0.456,2.689
		c0.098,0.676,0,1.417,0.224,2.036c0.469,1.307,1.103,2.555,1.655,3.842c0.488,1.136,0.949,2.306,1.464,3.427
		c0.471,1.02,1.011,2.019,1.559,2.999c0.919,1.673,1.883,3.323,2.938,5.161c0.231-0.398,0.37-0.546,0.391-0.709
		c0.131-1.208,0.234-2.412,0.339-3.625c0.076-0.96,0.139-1.926,0.253-2.887c0.092-0.836,0.265-1.663,0.347-2.505
		c0.022-0.163-0.18-0.426-0.347-0.527c-1.099-0.65-1.86-1.581-2.592-2.611c-1.015-1.421-2.269-2.666-2.947-4.316
		c-0.32-0.819-0.724-1.59-1-2.423c-0.08-0.239,0.058-0.731,0.246-0.844c0.377-0.217,0.813-0.06,1.015,0.368
		c1.304,2.833,3.625,4.872,5.584,7.205c0.347,0.41,0.524,0.356,0.92,0.146c1.054-0.551,2.115-0.878,3.053,0.258
		c0.184,0.224,0.477,0.353,0.728,0.53c1.215,0.854,2.414,1.741,3.659,2.559c0.978,0.63,1.325,1.976,2.598,2.258
		c0.08,0.015,0.101,0.229,0.158,0.352C43.457,46.936,43.87,47.334,44.441,47.51 M44.357,72.568c0.348-0.61,0.326-1.156-0.018-1.843
		c-0.485-0.952-0.761-2.03-0.996-3.08c-0.159-0.746,0.081-1.615-0.188-2.303c-0.393-0.994-1.067-1.879-1.65-2.807
		c-0.766-1.224-1.707-2.374-2.296-3.679c-1.003-2.234-2.076-4.429-2.733-6.836c-0.49-1.799-1.408-3.495-1.663-5.386
		c-0.041-0.299-0.344-0.572-0.515-0.85c-0.08,0.023-0.155,0.038-0.232,0.057c-0.246,1.718-0.586,3.428-0.702,5.145
		c-0.089,1.314,0.258,2.648,0.127,3.951c-0.27,2.828,0.285,5.561,0.928,8.255c0.592,2.393,1.496,4.701,2.652,6.911
		c0.937,1.814,1.685,3.719,3.24,5.127c0.522,0.483,0.972,1.05,1.607,1.734c0.078-0.228,0.095-0.32,0.133-0.385
		C42.824,75.243,43.599,73.914,44.357,72.568 M43.058,87.968c0.486-0.741,1.208-1.42,0.8-2.467
		c-0.341-0.906-0.594-1.843-1.006-2.718c-0.755-1.624-2.367-2.715-2.83-4.527c-0.017-0.052-0.157-0.059-0.223-0.1
		c-0.283-0.234-0.595-0.438-0.82-0.723c-0.717-0.916-1.329-1.915-2.105-2.789c-0.893-1.015-1.816-2.04-2.893-2.841
		c-1.514-1.12-3.175-2.054-4.787-3.053c-0.789-0.483-1.574-0.969-2.398-1.365c-0.25-0.117-0.825-0.049-0.923,0.123
		c-0.827,1.421-1.088,3.025-1.15,4.61c-0.04,1.096-0.02,2.196,0.059,3.288c0.04,0.66,0.108,1.316,0.187,1.968
		c0.223,1.764,0.632,3.513,1.061,5.24c0.393,1.568,0.879,3.107,1.389,4.643c0.425,1.282,0.803,2.605,1.455,3.781
		c0.762,1.394,1.816,2.639,2.714,3.972c0.744,1.121,1.091,1.284,2.376,0.934c1.211-0.322,2.435-0.605,3.493,0.27
		c0.431-0.779,0.784-1.48,1.219-2.143c0.931-1.49,0.85-1.767-0.251-2.852c-1.385-1.357-2.696-2.812-3.955-4.294
		c-0.904-1.068-1.77-2.197-2.492-3.4c-1.462-2.441-2.797-4.951-4.195-7.443c-0.122-0.206-0.187-0.424-0.208-0.629
		c-0.07-0.676,0.354-1.254,1.098-1.314c0.592-0.046,1.775,0.713,1.997,1.26c0.285,0.708,0.548,1.427,0.925,2.084
		c1.005,1.802,1.965,3.649,3.118,5.351c1.138,1.656,2.467,3.2,3.797,4.706c0.652,0.754,1.491,1.319,2.288,1.913
		c0.407,0.308,0.846,0.426,1.216-0.155C42.319,88.833,42.749,88.441,43.058,87.968 M41.623,162.053
		c-0.149-0.546-0.234-0.92-0.37-1.273c-0.17-0.444-0.436-0.854-0.547-1.3c-0.275-1-1.292-1.765-2.326-1.706
		c-1.687,0.101-2.961,1.699-3.235,2.958c-0.157,0.713-0.426,1.475,0.338,2.084c0.834,0.683,1.596,1.427,2.425,2.114
		c0.86,0.721,2.482,0.499,2.968-0.486C41.25,163.668,41.406,162.778,41.623,162.053 M41.539,170.846
		c0.487-0.348,0.421-0.962-0.085-1.084c-0.969-0.229-1.962-0.469-2.955-0.498c-1.026-0.041-2.06,0.106-3.059-0.318
		c-0.229-0.106-0.591-0.117-0.818-0.017c-1.373,0.712-2.882,0.628-4.313,0.509c-1.69-0.136-3.356-0.609-5.022-0.966
		c-0.584-0.126-1.207-0.231-1.716-0.53c-0.531-0.309-1.32-0.561-1.145-1.461c0.163-0.837,0.809-1.052,1.542-1
		c0.746,0.057,1.514,0.139,2.247,0.301c1.908,0.429,3.78,1.01,5.907,0.79c-0.083-0.334-0.154-0.544-0.204-0.744
		c-0.229-0.993-0.595-1.983-0.667-2.993c-0.187-2.325-1.425-3.531-3.709-2.909c-1.687,0.452-3.366,1.006-4.961,1.682
		c-1.661,0.684-3.205,1.639-4.864,2.345c-0.834,0.338-0.834,0.8-0.572,1.446c0.833,2.095,2.513,3.488,4.212,4.801
		c1.14,0.898,2.466,1.56,3.737,2.281c1.734,0.992,3.579,1.686,5.587,1.849c2.825,0.234,5.487-0.421,7.995-1.69
		C39.685,172.128,40.621,171.508,41.539,170.846 M46.672,60.131c0.621-0.863,1.948-1.551,0.798-2.92
		c-0.217-0.269-0.364-0.602-0.448-0.939c-0.787-2.743-2.496-4.95-4.285-7.068c-0.658-0.785-1.411-1.493-2.144-2.207
		c-1.031-0.993-2.084-1.965-3.156-2.92c-0.214-0.187-0.558-0.225-1.134-0.439c0.309,1.419,0.485,2.611,0.836,3.758
		c0.573,1.93,1.18,3.865,1.924,5.739c0.72,1.791,1.619,3.528,2.464,5.273c0.257,0.54,0.602,1.029,0.909,1.547
		c0.482,0.804,0.941,1.617,1.441,2.404c0.234,0.369,0.596,0.584,0.941,0.169C45.461,61.743,46.081,60.951,46.672,60.131
		 M48.121,87.571c-0.083-0.072-0.184-0.14-0.273-0.2c-0.801,0.627-1.693,1.168-2.362,1.9c-0.935,1.042-1.631,2.311-2.573,3.348
		c-1.331,1.469-1.81,3.366-2.74,5.026c-0.136,0.247,0.05,0.774,0.24,1.086c0.352,0.623,0.862,1.141,1.201,1.772
		c1.043,1.922,0.706,3.85-0.133,5.75c-0.514,1.156-1.476,1.872-2.493,2.542c-0.714,0.456-1.423,0.919-2.076,1.455
		c-0.483,0.391-0.37,1.493,0.135,2.01c0.557,0.571,1.078,0.357,1.581-0.095c0.205-0.19,0.395-0.388,0.615-0.564
		c1.214-0.904,2.558-1.3,4.046-0.884c0.826,0.238,1.343-0.209,1.644-0.738c0.597-1.031,1.148-2.131,1.515-3.268
		c0.785-2.457,0.792-5.034,0.833-7.581c0.006-0.212,0-0.438-0.036-0.646c-0.206-1.339-0.755-2.608-0.301-4.039
		c0.378-1.142,0.507-2.372,0.708-3.57C47.842,89.784,47.967,88.671,48.121,87.571 M46.019,166.127
		c1.198-2.605,1.044-5.349,0.391-8.017c-0.696-2.816-1.586-5.597-3.385-7.98c-0.178-0.245-0.262-0.578-0.404-0.871
		c-0.711-1.536-1.368-3.127-2.19-4.619c-0.955-1.727-1.883-3.464-3.297-4.906c-1.562-1.58-3.121-3.145-5.08-4.232
		c-0.821-0.463-1.666-0.892-2.505-1.326c-0.07,0.063-0.146,0.131-0.219,0.2c0.183,0.506,0.32,1.037,0.558,1.529
		c0.669,1.361,1.399,2.718,2.104,4.073c0.557,1.069,1.091,2.143,1.669,3.197c0.494,0.89,1.075,1.736,1.538,2.637
		c0.4,0.79,0.614,1.677,0.996,2.472c0.863,1.816,1.808,3.587,2.686,5.386c0.213,0.432,0.312,0.928,0.527,1.363
		c0.092,0.196,0.318,0.412,0.533,0.472c1.19,0.317,2.333,0.892,2.954,1.897c1.002,1.588,1.724,3.387,1.571,5.322
		c-0.086,1.056-0.48,2.111-0.837,3.126c-0.248,0.684-0.023,1.099,0.483,1.484c0.521,0.4,0.944,0.109,1.299-0.252
		C45.668,166.81,45.864,166.471,46.019,166.127 M48.022,137.911c0.501-1.743,0.451-3.495,0.017-5.219
		c-0.171-0.668-0.572-1.295-0.626-1.974c-0.052-0.674-0.476-1.038-0.82-1.497c-0.16-0.231-0.486-0.347-0.629-0.578
		c-0.73-1.097-1.363-2.236-2.114-3.306c-0.693-0.977-0.759-2.11-0.693-3.163c0.066-0.87,0.668-1.697,1.029-2.554
		c0.255-0.602,0.789-1.248,0.708-1.808c-0.146-1.003-0.632-1.969-1.037-2.921c-0.078-0.202-0.368-0.332-0.564-0.486
		c-0.113,0.069-0.228,0.133-0.344,0.201c-0.088,1.643-0.154,3.288-0.245,4.93c-0.018,0.38,0,0.779-0.089,1.15
		c-0.602,2.304-0.969,4.636-1.127,7.019c-0.279,4.059-0.214,8.102,0.275,12.142c0.021,0.166,0.135,0.332,0.217,0.499
		c0.635,1.129,1.286,2.251,1.865,3.412c0.358,0.719,0.596,1.493,0.889,2.235c0.177,0.455,0.438,0.408,0.643,0.071
		c0.296-0.485,0.629-0.976,0.792-1.522C46.825,142.338,47.399,140.116,48.022,137.911 M51.663,70.633
		c2.527-1.078,3.788-3.859,3.012-6.605c-0.374-1.324-0.938-2.7-2.526-2.724c-1.23-0.017-2.467,0.461-3.696,0.727
		c-0.08,0.014-0.146,0.18-0.214,0.245c-1.651,1.456-1.704,3.448-1.808,5.416c-0.021,0.285,0.163,0.629,0.346,0.884
		c0.268,0.367,0.615,0.667,0.908,1.017c0.661,0.821,1.449,1.325,2.567,1.333C50.725,70.833,51.229,70.82,51.663,70.633
		 M57.192,25.595c0.457-1.43,0.727-2.994,0.528-4.579c-0.329-2.499-0.546-5.017-0.818-7.524c-0.038-0.361-0.092-0.714-0.136-1.121
		c-2.458,1.465-4.117,3.599-5.617,5.752c-1.108,1.611-1.628,3.637-2.377,5.483c-0.092,0.245-0.074,0.554-0.016,0.82
		c0.342,1.924-0.116,3.736-0.697,5.535c-0.191,0.558-0.286,1.153-0.554,1.66c-0.429,0.829-0.53,1.634-0.195,2.514
		c0.773,0.11,1.479,0.165,2.182-0.332c0.716-0.501,1.532-0.84,2.282-1.283c0.32-0.187,0.605-0.413,0.875-0.659
		c0.381-0.347,0.688-0.788,1.105-1.085C55.586,29.499,56.547,27.578,57.192,25.595 M54.478,102.952
		c0.078-1.112,0.306-2.23,0.255-3.332c-0.085-1.677-0.335-3.352-0.554-5.018c-0.269-1.934-0.56-3.874-0.895-5.804
		c-0.217-1.245-0.51-2.464-0.833-3.679c-0.063-0.21-0.4-0.347-0.679-0.584c-0.492,1.811-0.966,3.318-1.301,4.871
		c-0.409,1.873-1.065,3.652-0.379,5.718c0.476,1.413,0.258,3.096,0.207,4.651c-0.063,1.763-0.069,3.563-0.495,5.254
		c-0.504,2.008-1.391,3.919-2.19,5.848c-0.244,0.608-0.768,1.112-1.061,1.709c-0.135,0.289-0.122,0.741-0.006,1.034
		c0.384,0.898,0.912,1.723,1.274,2.618c0.239,0.584,0.439,0.625,0.871,0.248c0.608-0.545,1.258-1.05,1.821-1.631
		c0.634-0.668,1.351-1.313,1.736-2.103c0.551-1.138,0.869-2.405,1.178-3.634c0.382-1.433,0.673-2.896,0.95-4.35
		C54.484,104.171,54.422,103.553,54.478,102.952 M52.68,127.099c1.289-0.635,1.458-1.883,1.502-3.167
		c-0.02-0.491-0.011-0.986-0.095-1.469c-0.149-0.997-0.921-1.551-1.624-2.176c-1.548-1.367-2.544-1.54-4.171-0.55
		c-1.959,1.19-2.67,2.803-2.221,4.719C46.771,127.413,50.307,128.287,52.68,127.099 M61.475,33.142
		c0.296-0.7,0.477-1.444,0.769-2.328c-0.5,0.068-0.844,0.031-1.113,0.16c-0.682,0.339-1.328,0.762-2.002,1.118
		c-2.145,1.12-4.042,2.594-5.759,4.24c-1.159,1.113-2.193,2.424-2.98,3.814c-0.954,1.701-1.691,3.53-2.33,5.378
		c-0.467,1.303-0.53,2.749-0.936,4.095c-0.237,0.768-0.16,1.465,0.151,2.132c0.318,0.703,0.768,1.363,1.27,2.217
		c0.293-0.347,0.529-0.593,0.728-0.871c0.762-1.031,1.486-2.089,2.254-3.104c0.544-0.714,1.176-1.36,1.691-2.095
		c1.261-1.847,2.487-3.718,3.677-5.603c0.793-1.244,1.577-2.499,2.231-3.821C59.985,36.74,60.718,34.932,61.475,33.142
		 M63.698,35.536c0.147-0.652-0.095-0.833-0.692-0.981c-0.426,1.002-0.844,1.984-1.238,2.974c-0.303,0.747-0.517,1.53-0.873,2.261
		c-0.473,0.952-1.037,1.883-1.579,2.805c-0.646,1.075-1.26,2.166-1.965,3.198c-1.159,1.656-2.383,3.275-3.572,4.921
		c-0.539,0.747-1.038,1.532-1.592,2.27c-0.626,0.803-1.313,1.563-1.935,2.366c-0.17,0.231-0.326,0.592-0.276,0.844
		c0.205,0.955,0.504,1.891,0.724,2.73c1.226,0.136,2.296,0.154,3.33,0.394c1.039,0.225,1.457,0.228,1.975-0.663
		c0.901-1.584,1.805-3.169,2.567-4.834c1.091-2.346,2.122-4.734,3.083-7.154c1.079-2.736,1.807-5.545,1.761-8.522
		C63.399,37.277,63.5,36.379,63.698,35.536 M62.729,94.146c-0.348-0.122-0.394-0.163-0.446-0.163c-1.605,0.204-3.223,0.4-4.83,0.656
		c-0.234,0.037-0.596,0.401-0.593,0.599c0.004,0.706,0.16,1.408,0.259,2.212c0.317-0.091,0.625-0.128,0.877-0.244
		c0.705-0.346,1.373-0.723,2.06-1.099c0.585-0.323,1.204-0.628,1.758-1.005C62.132,94.877,62.363,94.533,62.729,94.146
		 M64.239,114.344c-0.053-0.517-0.119-1.223-0.166-1.937c-0.027-0.63-0.421-0.649-0.858-0.501c-0.466,0.148-0.897,0.362-1.346,0.555
		c-1.791,0.782-3.582,1.536-5.346,2.348c-0.681,0.31-1.324,0.708-1.967,1.093c-0.36,0.223-0.665,0.53-1.023,0.747
		c-0.502,0.29-0.557,0.798-0.095,1.163c0.96,0.734,1.932,1.425,2.679,2.421c0.585,0.764,0.895,1.533,0.905,2.454
		c0.023,0.656,0.156,1.337,0.026,1.956c-0.19,0.95-0.067,2.022-0.984,2.749c-0.433,0.344-0.848,0.797-1.058,1.292
		c-0.312,0.714-0.906,0.895-1.503,1.055c-0.961,0.25-1.351,0.801-1.197,1.799c0.044,0.255,0.133,0.641-0.003,0.765
		c-0.585,0.581,0.21,0.951,0.169,1.427c0.338-0.057,0.714-0.037,1.014-0.194c1.9-0.999,3.344-2.587,4.98-3.916
		c0.106-0.082,0.16-0.215,0.251-0.317c1.456-2.044,2.592-4.229,3.592-6.548C63.439,120.097,63.89,117.356,64.239,114.344
		 M65.18,96.753c0.095-0.129,0.024-0.367,0.041-0.738c-0.329,0.107-0.581,0.14-0.768,0.249c-0.893,0.545-1.8,1.077-2.635,1.704
		c-0.57,0.425-1.179,0.789-1.675,1.403c-0.486,0.599-1.091,1.551-2.238,1.398c-0.184-0.014-0.601,0.247-0.608,0.398
		c-0.077,1.097-0.085,2.193-0.059,3.278c0.001,0.131,0.507,0.404,0.591,0.342c0.889-0.626,1.769-1.272,2.581-1.995
		c1.156-1.055,2.32-2.129,2.952-3.628c0.017-0.043,0.089-0.054,0.127-0.099C64.059,98.297,64.634,97.536,65.18,96.753
		 M67.326,62.826c0.106-1.798,0.201-3.579-0.704-5.297c-0.289,0.035-0.615-0.024-0.867,0.103c-0.557,0.263-1.091,0.592-1.617,0.931
		c-1.431,0.955-2.89,1.873-4.261,2.904c-0.704,0.529-1.19,1.343-1.88,1.9c-0.777,0.626-1.094,1.302-0.883,2.295
		c0.091,0.377,0.006,0.803-0.078,1.2c-0.497,2.342-1.989,4.019-3.764,5.473c-0.987,0.811-2.061,1.042-3.362,0.678
		c-0.572-0.166-1.357-0.622-1.986,0.057c-0.977,1.031-1.992,2.027-2.367,3.495c-0.22,0.858-0.673,1.673-0.925,2.516
		c-0.166,0.537-0.383,1.2-0.209,1.663c0.295,0.785,0.988,1.411,1.294,2.187c0.323,0.777,0.701,1.195,1.419,1.029
		c0.332-0.401,0.638-0.694,0.848-1.044c0.561-0.897,1.49-1.52,1.805-2.617c0.225-0.8,0.936-1.183,1.814-1.058
		c0.522,0.085,1.037,0.276,1.512,0.521c0.528,0.277,0.901,0.363,1.283-0.222c0.587-0.928,1.397-1.751,1.838-2.741
		c1.194-2.733,2.651-5.325,4.311-7.791c0.183-0.272,0.571-0.627,0.802-0.592c0.469,0.076,0.721,0.453,0.661,1.034
		c-0.154,1.845-0.681,3.563-1.413,5.252c-1.129,2.604-2.445,5.069-4.47,7.095c-0.391,0.396-0.711,0.966-1.194,1.14
		c-0.808,0.299-0.617,0.754-0.417,1.275c0.067,0.213,0.23,0.385,0.286,0.587c0.299,1.21,0.59,2.418,0.86,3.625
		c0.123,0.537,0.568,0.874,0.886,0.567c1.333-1.246,2.762-2.417,3.901-3.834c1.054-1.297,1.896-2.801,2.634-4.318
		c0.963-1.992,1.722-4.09,2.591-6.13c0.819-1.948,1.162-4.014,1.343-6.095C67.18,66.685,67.218,64.751,67.326,62.826
		 M66.126,131.677c0.261-0.437,0.483-0.888,0.83-1.514c-0.521,0.057-0.8,0.024-1.028,0.133c-1.861,0.851-3.681,1.812-5.566,2.588
		c-2.131,0.86-3.919,2.23-5.793,3.49c-0.53,0.366-1.162,0.607-1.675,0.999c-0.569,0.437-1.232,0.892-1.537,1.507
		c-0.433,0.86-0.547,1.871-0.816,2.81c-0.718,2.429-1.452,4.857-2.181,7.301c-0.24,0.778-0.492,1.551-0.809,2.558
		c0.426-0.177,0.633-0.212,0.746-0.32c0.755-0.657,1.495-1.324,2.215-2.009c2.496-2.366,5.026-4.708,7.47-7.137
		c1.146-1.133,2.112-2.461,3.189-3.658C63.063,136.35,64.729,134.104,66.126,131.677 M67.061,156.471
		c0.157-1.115,0.146-1.123-0.95-1.177c-0.147-0.009-0.291-0.041-0.416-0.012c-2.961,0.482-5.839,1.158-8.502,2.652
		c-2.561,1.436-4.368,3.549-5.88,5.921c-0.923,1.449-1.492,3.118-2.239,4.676c-0.467,0.944-0.996,1.823-2.266,1.756
		c-0.157-0.012-0.39,0.109-0.469,0.242c-0.054,0.072,0.079,0.365,0.201,0.433c0.798,0.431,1.574,0.967,2.425,1.236
		c1.95,0.606,3.952,0.289,5.907,0.078c1.596-0.176,3.207-0.54,4.455-1.729c1.326-1.254,2.8-2.374,3.76-3.975
		c0.728-1.204,1.604-2.326,2.243-3.574C66.354,160.962,66.729,158.708,67.061,156.471 M68.179,133.693
		c-0.106-0.071-0.217-0.154-0.332-0.222c-0.32,0.395-0.681,0.748-0.966,1.171c-0.572,0.848-1.064,1.757-1.645,2.593
		c-0.531,0.784-1.168,1.489-1.714,2.26c-0.48,0.688-0.815,1.503-1.381,2.112c-1.621,1.703-3.308,3.363-5.004,5.011
		c-1.728,1.687-3.503,3.343-5.268,5.015c-0.403,0.377-0.852,0.735-1.236,1.149c-0.381,0.414-0.75,0.875-1.078,1.334
		c-0.385,0.516-0.856,0.964-0.557,1.777c0.429,1.167,0.687,2.4,1.06,3.696c0.215-0.154,0.347-0.219,0.446-0.326
		c0.616-0.62,1.173-1.329,1.862-1.861c1.664-1.278,3.348-2.523,5.098-3.677c2.315-1.514,3.963-3.598,5.095-6.041
		c1.708-3.701,3.245-7.467,4.814-11.231C67.738,135.579,67.917,134.61,68.179,133.693 M72.482,125.958
		c0.783,0.618,1.096,1.862,0.46,2.725c-1.598,2.17-1.72,4.794-2.464,7.232c-1.13,3.726-2.493,7.357-4.17,10.868
		c-0.795,1.644-1.628,3.261-2.426,4.903c-0.099,0.201-0.086,0.464-0.154,0.877c1.646-0.152,3.196-0.244,4.722-0.445
		c1.34-0.177,2.191,0.412,2.935,1.589c0.679,1.064,0.195,1.719-0.239,2.608c-0.594,1.264-1.018,2.617-1.454,3.949
		c-0.449,1.384-0.782,2.819-1.285,4.179c-0.371,0.999-0.793,2.019-1.436,2.852c-1.093,1.408-2.416,2.624-3.572,3.995
		c-1.191,1.405-2.711,2.315-4.321,3.118c-0.326,0.155-0.697,0.241-1.065,0.309c-1.938,0.377-3.876,0.761-5.881,0.637
		c-2.244-0.145-4.342-0.722-6.32-1.749c-0.684-0.356-1.286-0.394-1.952-0.041c-1.373,0.746-2.73,1.544-4.141,2.214
		c-1.418,0.676-2.852,1.261-4.458,1.479c-1.319,0.182-2.6,0.397-3.92,0.21c-1.605-0.23-3.176-0.538-4.704-1.146
		c-2.299-0.92-4.387-2.217-6.307-3.736c-1.43-1.119-2.692-2.471-3.999-3.746c-1.059-1.026-2.137-2.03-3.073-3.165
		c-0.531-0.646-1.122-1.451-0.645-2.431c0.092-0.19,0.262-0.398,0.445-0.487c1.183-0.601,2.372-1.189,3.579-1.734
		c1.983-0.904,3.959-1.835,5.994-2.631c1.639-0.626,3.36-1.053,5.029-1.614c0.48-0.163,0.871-0.435,0.588-1.099
		c-0.728-1.794-1.453-3.583-2.087-5.413c-0.314-0.913-0.377-1.906-0.564-2.863c-0.415-2.193-0.895-4.389-1.238-6.598
		c-0.404-2.564-0.701-5.147-1.071-7.72c-0.079-0.532-0.334-1.042-0.429-1.574c-0.132-0.732,0.603-1.932,1.232-1.915
		c0.777,0.037,1.584,0.135,2.3,0.398c2.146,0.806,4.257,1.702,6.133,3.045c0.276,0.201,0.612,0.317,1.085,0.548
		c-0.026-1.099-0.027-2.033-0.082-2.971c-0.006-0.112-0.197-0.242-0.329-0.307c-0.632-0.323-1.359-0.52-1.907-0.941
		c-0.747-0.571-1.405-1.262-2.027-1.979c-0.513-0.554-0.924-1.2-1.352-1.832c-1.215-1.833-2.505-3.631-3.59-5.552
		c-1.633-2.87-2.268-6.076-2.795-9.319c-0.636-3.782,0.06-7.516,0.068-11.27c0.009-0.344,0.208-0.691,0.332-1.079
		c2.167,1.137,4.219,2.19,6.249,3.272c0.596,0.323,0.889,0.269,1.147-0.423c0.25-0.692,0.655-1.338,1.076-1.945
		c0.673-0.984,0.643-1.156-0.128-2.025c-0.912-1.01-1.758-2.077-2.581-3.152c-0.21-0.286-0.22-0.714-0.346-1.125
		c-0.102-0.084-0.362-0.194-0.458-0.388c-0.495-1.009-0.949-2.04-1.405-3.066c-0.562-1.262-1.294-2.475-1.636-3.797
		c-0.56-2.17-0.887-4.42-1.299-6.631c-0.091-0.408-0.251-0.819-0.259-1.238c-0.054-1.851,0.177-3.753-0.152-5.541
		c-0.388-2.019,0.299-3.811,0.554-5.685c0.021-0.155,0.13-0.356,0.078-0.456c-0.387-0.652-0.265-1.168,0.301-1.651
		c0.671-0.588,1.417-0.775,2.277-0.588c0.819,0.181,1.501,0.45,1.954,1.332c0.26,0.517,1.057,0.779,1.622,1.123
		c1.374,0.812,2.774,1.61,4.161,2.407c0.147,0.085,0.326,0.115,0.758,0.288c-0.322-0.941-0.536-1.666-0.821-2.372
		c-0.889-2.344-1.666-4.696-1.749-7.239c-0.031-0.918-0.058-1.829-0.136-2.741c-0.017-0.226-0.18-0.502-0.353-0.618
		c-1.517-0.983-2.594-2.367-3.461-3.903c-1.376-2.421-2.689-4.896-3.988-7.37c-0.483-0.942-0.847-1.956-1.269-2.937
		c-0.42-0.97-0.772-1.973-1.277-2.892c-0.984-1.786-1.09-3.769-1.37-5.697c-0.31-2.114-0.366-4.257-0.572-6.379
		c-0.074-0.736-0.367-1.46-0.427-2.195c-0.04-0.568-0.089-1.3,0.212-1.716c0.277-0.388,1.007-0.658,1.531-0.643
		c1.175,0.036,2.342,0.346,3.519,0.421c1.682,0.106,3.249,0.622,4.793,1.237c0.701,0.277,1.367,0.646,2.043,0.994
		c0.445,0.22,0.871,0.499,1.337,0.668c0.109,0.038,0.54-0.302,0.533-0.432c-0.255-2.127-0.56-4.255-0.83-6.37
		c-0.015-0.083-0.026-0.17-0.026-0.251c0.074-1.578,0.041-3.17,0.255-4.736c0.133-1.044,0.616-2.054,0.927-3.082
		c0.089-0.308,0.192-0.628,0.219-0.95c0.143-1.591,0.83-1.919,2.295-1.783c0.86,0.083,1.485,0.467,1.832,1.473
		c0.224,0.679,1.105,1.186,1.784,1.639c2.149,1.452,4.216,2.984,5.869,5.001c0.7,0.866,1.335,1.773,2.002,2.652
		c0.112,0.155,0.234,0.29,0.367,0.428c0.122-0.126,0.282-0.235,0.371-0.377c0.516-0.843,0.925-1.75,1.531-2.496
		c0.999-1.251,2.07-2.434,3.191-3.583c0.657-0.65,1.493-1.128,2.198-1.749c0.798-0.7,1.512-1.485,2.304-2.188
		c1.013-0.887,3.009-0.656,3.672,0.494c0.234,0.413,0.279,1.077,0.138,1.533c-0.534,1.681-0.553,3.341-0.342,5.081
		c0.269,2.181,0.358,4.393,0.397,6.596c0.024,1.715-0.153,3.435-0.228,5.26c1.099-0.589,2.262-1.156,3.379-1.799
		c0.976-0.571,1.945-0.215,2.878-0.017c0.741,0.147,1.317,1.951,1.197,2.76c-0.225,1.721-0.361,3.449-0.511,5.165
		c-0.221,2.557-0.35,5.124-0.68,7.676c-0.177,1.401-0.639,2.782-1.061,4.141c-0.549,1.807-1.099,3.606-1.802,5.34
		c-0.397,0.98-1.138,1.824-1.663,2.757C61.5,54.84,61.028,55.874,60.472,57c0.327,0.013,0.515,0.078,0.62,0.016
		c1.019-0.646,2.012-1.291,3-1.975c0.595-0.412,1.123-0.928,1.733-1.312c0.302-0.181,0.76-0.309,1.094-0.241
		c2.212,0.519,2.882,0.592,3.11,3.59c0.188,2.597,0.368,5.235,0.279,7.84c-0.092,2.511-0.371,5.037-0.852,7.506
		c-0.48,2.451-1.269,4.858-2.483,7.069c-0.759,1.394-1.698,2.71-2.383,4.136c-0.953,2.044-2.618,3.479-4.07,5.094
		c-0.955,1.074-2.033,2.075-3.044,3.118c-0.108,0.116-0.163,0.312-0.283,0.585c0.335-0.024,0.546-0.015,0.75-0.068
		c1.362-0.341,2.699-0.807,4.086-1.011c1.531-0.228,3.111-0.146,4.654-0.349c0.98-0.132,1.734,0.04,2.435,0.731
		c0.528,0.521,0.789,1.129,0.7,1.826c-0.094,0.747-0.174,1.547-0.503,2.199c-0.852,1.669-1.649,3.427-2.819,4.852
		c-1.408,1.709-3.11,3.215-4.839,4.632c-0.998,0.811-2.3,1.259-3.453,1.882c-0.451,0.245-0.891,0.492-1.301,0.782
		c-0.163,0.118-0.328,0.332-0.364,0.513c-0.163,1.034-0.27,2.068-0.439,3.257c0.361-0.079,0.761-0.109,1.105-0.248
		c1.145-0.469,2.281-0.959,3.403-1.492c0.901-0.423,1.71-0.928,2.434-1.698c1.096-1.162,3.424-0.524,4.253,0.936
		c0.674,1.203,0.055,2.386,0.093,3.57c0.009,0.427-0.124,0.859-0.17,1.295c-0.215,1.601-0.394,3.205-0.633,4.804
		c-0.114,0.781-0.205,1.598-0.493,2.322c-0.782,1.945-1.648,3.848-2.478,5.769c-0.13,0.316-0.272,0.636-0.469,1.116
		c0.339-0.02,0.573,0.03,0.76-0.058c1.858-0.813,3.747-1.598,5.557-2.517C70.926,124.733,71.416,125.142,72.482,125.958
		 M46.49,41.972c0.394-0.85,0.634-1.529,1.005-2.128c0.374-0.646,0.881-1.207,1.299-1.829c0.041-0.062-0.203-0.428-0.258-0.409
		c-0.439,0.109-0.984,0.143-1.276,0.43c-0.563,0.566-1.171,1.223-1.396,1.944C45.713,40.463,46.197,41.128,46.49,41.972"/>
	<path clip-path="url(#SVGID_2_)" fill="#FFFFFF" d="M67.847,133.471c0.115,0.068,0.226,0.151,0.332,0.222
		c-0.261,0.917-0.441,1.886-0.806,2.76c-1.569,3.764-3.106,7.53-4.814,11.231c-1.132,2.443-2.78,4.527-5.095,6.041
		c-1.75,1.154-3.434,2.399-5.097,3.678c-0.69,0.531-1.247,1.24-1.863,1.86c-0.099,0.107-0.23,0.172-0.446,0.326
		c-0.373-1.296-0.631-2.529-1.06-3.696c-0.299-0.813,0.172-1.261,0.557-1.777c0.328-0.459,0.697-0.919,1.078-1.334
		c0.384-0.414,0.833-0.772,1.236-1.149c1.765-1.672,3.54-3.327,5.268-5.015c1.696-1.648,3.383-3.308,5.004-5.011
		c0.566-0.609,0.901-1.423,1.381-2.112c0.546-0.771,1.183-1.476,1.714-2.26c0.581-0.836,1.073-1.745,1.645-2.593
		C67.166,134.22,67.526,133.866,67.847,133.471"/>
	<path clip-path="url(#SVGID_2_)" fill="#FFFFFF" d="M66.111,155.294c1.096,0.054,1.106,0.062,0.949,1.177
		c-0.33,2.238-0.706,4.491-1.731,6.527c-0.638,1.248-1.515,2.369-2.242,3.574c-0.96,1.601-2.434,2.721-3.761,3.975
		c-1.248,1.189-2.858,1.552-4.455,1.729c-1.954,0.211-3.957,0.528-5.906-0.078c-0.852-0.269-1.627-0.805-2.426-1.236
		c-0.122-0.068-0.255-0.361-0.2-0.434c0.078-0.132,0.312-0.253,0.469-0.241c1.269,0.066,1.799-0.813,2.265-1.757
		c0.747-1.557,1.316-3.226,2.24-4.675c1.512-2.372,3.318-4.485,5.879-5.922c2.664-1.494,5.542-2.17,8.502-2.651
		C65.82,155.253,65.963,155.285,66.111,155.294"/>
	<path clip-path="url(#SVGID_2_)" fill="#FFFFFF" d="M66.956,130.163c-0.347,0.626-0.569,1.078-0.83,1.514
		c-1.397,2.428-3.063,4.673-4.954,6.748c-1.078,1.197-2.044,2.525-3.189,3.659c-2.445,2.428-4.974,4.77-7.47,7.136
		c-0.72,0.685-1.461,1.352-2.216,2.009c-0.113,0.108-0.32,0.143-0.745,0.32c0.317-1.007,0.569-1.78,0.809-2.558
		c0.729-2.444,1.462-4.872,2.18-7.301c0.269-0.939,0.384-1.95,0.817-2.81c0.305-0.615,0.967-1.07,1.536-1.506
		c0.513-0.393,1.146-0.634,1.675-0.999c1.875-1.261,3.663-2.631,5.794-3.491c1.885-0.776,3.705-1.737,5.565-2.588
		C66.156,130.187,66.435,130.22,66.956,130.163"/>
	<path clip-path="url(#SVGID_2_)" fill="#FFFFFF" d="M66.621,57.529c0.906,1.717,0.81,3.498,0.705,5.297
		c-0.109,1.924-0.147,3.859-0.31,5.787c-0.181,2.082-0.523,4.148-1.343,6.096c-0.869,2.04-1.628,4.138-2.591,6.13
		c-0.738,1.516-1.58,3.021-2.633,4.317c-1.14,1.417-2.569,2.588-3.901,3.835c-0.319,0.306-0.764-0.03-0.886-0.567
		c-0.27-1.208-0.562-2.415-0.86-3.625c-0.056-0.202-0.219-0.375-0.287-0.587c-0.199-0.521-0.391-0.977,0.418-1.276
		c0.483-0.173,0.803-0.744,1.194-1.139c2.025-2.027,3.341-4.491,4.47-7.096c0.732-1.688,1.258-3.406,1.412-5.251
		c0.06-0.582-0.191-0.959-0.661-1.034c-0.231-0.035-0.619,0.32-0.801,0.591c-1.66,2.466-3.118,5.059-4.312,7.792
		c-0.44,0.99-1.251,1.812-1.838,2.74c-0.382,0.586-0.754,0.5-1.283,0.222c-0.475-0.244-0.99-0.436-1.512-0.52
		c-0.878-0.126-1.589,0.258-1.814,1.058c-0.315,1.097-1.243,1.72-1.805,2.616c-0.209,0.35-0.516,0.643-0.848,1.045
		c-0.718,0.166-1.095-0.252-1.418-1.03c-0.307-0.775-0.999-1.402-1.295-2.186c-0.174-0.464,0.044-1.126,0.21-1.663
		c0.252-0.844,0.704-1.659,0.925-2.516c0.374-1.468,1.39-2.464,2.366-3.495c0.629-0.679,1.414-0.223,1.986-0.057
		c1.301,0.363,2.375,0.132,3.362-0.678c1.775-1.455,3.268-3.131,3.764-5.474c0.085-0.396,0.169-0.822,0.079-1.199
		c-0.212-0.993,0.105-1.669,0.882-2.296c0.69-0.557,1.176-1.37,1.881-1.9c1.37-1.03,2.829-1.948,4.26-2.903
		c0.527-0.34,1.061-0.669,1.618-0.931C66.007,57.505,66.333,57.564,66.621,57.529"/>
	<path clip-path="url(#SVGID_2_)" fill="#FFFFFF" d="M65.221,96.015c-0.017,0.371,0.054,0.61-0.041,0.738
		c-0.546,0.783-1.121,1.544-1.691,2.312c-0.038,0.045-0.111,0.056-0.127,0.1c-0.632,1.498-1.796,2.573-2.952,3.627
		c-0.812,0.723-1.692,1.369-2.581,1.995c-0.084,0.062-0.59-0.211-0.591-0.342c-0.026-1.085-0.018-2.181,0.059-3.278
		c0.007-0.151,0.424-0.412,0.608-0.398c1.147,0.154,1.752-0.799,2.238-1.398c0.496-0.614,1.105-0.978,1.675-1.403
		c0.835-0.626,1.742-1.159,2.635-1.704C64.64,96.154,64.892,96.122,65.221,96.015"/>
	<path clip-path="url(#SVGID_2_)" fill="#FFFFFF" d="M64.072,112.406c0.047,0.714,0.113,1.42,0.166,1.938
		c-0.348,3.012-0.798,5.752-1.93,8.41c-0.999,2.319-2.136,4.505-3.592,6.548c-0.09,0.103-0.145,0.235-0.25,0.317
		c-1.636,1.329-3.08,2.917-4.98,3.916c-0.301,0.157-0.676,0.137-1.014,0.195c0.04-0.477-0.755-0.847-0.17-1.428
		c0.136-0.124,0.047-0.51,0.004-0.765c-0.154-0.997,0.235-1.548,1.196-1.799c0.598-0.16,1.191-0.341,1.503-1.055
		c0.21-0.495,0.625-0.947,1.058-1.292c0.918-0.727,0.794-1.798,0.984-2.749c0.13-0.619-0.003-1.299-0.026-1.956
		c-0.01-0.921-0.319-1.69-0.905-2.454c-0.747-0.996-1.719-1.687-2.679-2.42c-0.461-0.365-0.407-0.874,0.095-1.164
		c0.358-0.217,0.663-0.523,1.024-0.747c0.642-0.385,1.285-0.783,1.966-1.092c1.764-0.812,3.555-1.567,5.347-2.349
		c0.448-0.193,0.88-0.407,1.346-0.555C63.651,111.757,64.045,111.777,64.072,112.406"/>
	<path clip-path="url(#SVGID_2_)" fill="#FFFFFF" d="M62.284,93.983c0.051,0,0.098,0.041,0.445,0.163
		c-0.367,0.386-0.597,0.729-0.914,0.955c-0.554,0.378-1.173,0.682-1.759,1.005c-0.686,0.376-1.355,0.753-2.059,1.099
		c-0.252,0.116-0.56,0.154-0.877,0.244c-0.1-0.804-0.255-1.506-0.26-2.212c-0.003-0.198,0.359-0.561,0.593-0.599
		C59.06,94.383,60.678,94.188,62.284,93.983"/>
	<path clip-path="url(#SVGID_2_)" fill="#FFFFFF" d="M63.005,34.554c0.598,0.148,0.839,0.329,0.693,0.981
		c-0.198,0.843-0.299,1.741-0.282,2.609c0.045,2.978-0.683,5.786-1.762,8.522c-0.961,2.421-1.992,4.808-3.083,7.155
		c-0.762,1.664-1.666,3.249-2.567,4.833c-0.517,0.891-0.935,0.888-1.975,0.663c-1.034-0.24-2.104-0.258-3.329-0.394
		c-0.221-0.839-0.519-1.775-0.725-2.73c-0.049-0.252,0.106-0.613,0.276-0.843c0.622-0.803,1.309-1.564,1.935-2.367
		c0.554-0.738,1.053-1.523,1.592-2.269c1.19-1.647,2.413-3.266,3.572-4.922c0.705-1.032,1.319-2.123,1.965-3.197
		c0.542-0.923,1.106-1.854,1.579-2.806c0.356-0.73,0.57-1.514,0.874-2.261C62.161,36.539,62.58,35.557,63.005,34.554"/>
	<path clip-path="url(#SVGID_2_)" fill="#FFFFFF" d="M62.243,30.813c-0.291,0.884-0.472,1.628-0.768,2.328
		c-0.758,1.79-1.49,3.598-2.35,5.332c-0.653,1.322-1.438,2.578-2.23,3.821c-1.191,1.885-2.416,3.756-3.678,5.604
		c-0.515,0.735-1.147,1.38-1.69,2.094c-0.768,1.016-1.493,2.074-2.255,3.104c-0.199,0.278-0.434,0.524-0.727,0.871
		c-0.503-0.854-0.953-1.513-1.271-2.217c-0.311-0.667-0.388-1.364-0.151-2.132c0.406-1.346,0.469-2.792,0.936-4.094
		c0.64-1.849,1.376-3.678,2.33-5.379c0.788-1.39,1.821-2.701,2.98-3.813c1.718-1.647,3.615-3.121,5.759-4.241
		c0.675-0.356,1.321-0.778,2.003-1.118C61.399,30.846,61.743,30.881,62.243,30.813"/>
	<path clip-path="url(#SVGID_2_)" fill="#ED1D24" d="M54.182,123.932c-0.044,1.284-0.213,2.532-1.502,3.168
		c-2.373,1.187-5.909,0.313-6.609-2.644c-0.449-1.915,0.262-3.529,2.221-4.719c1.627-0.99,2.623-0.817,4.171,0.55
		c0.703,0.625,1.474,1.179,1.624,2.177C54.17,122.946,54.162,123.441,54.182,123.932"/>
	<path clip-path="url(#SVGID_2_)" fill="#FFFFFF" d="M54.732,99.62c0.051,1.102-0.177,2.22-0.255,3.332
		c-0.054,0.601,0.008,1.219-0.101,1.816c-0.276,1.454-0.568,2.917-0.949,4.35c-0.31,1.229-0.628,2.496-1.179,3.634
		c-0.385,0.79-1.102,1.435-1.735,2.102c-0.563,0.581-1.214,1.087-1.822,1.632c-0.432,0.377-0.632,0.336-0.871-0.248
		c-0.362-0.895-0.89-1.72-1.273-2.618c-0.117-0.293-0.13-0.745,0.006-1.034c0.292-0.597,0.816-1.101,1.061-1.71
		c0.798-1.928,1.685-3.839,2.189-5.847c0.426-1.691,0.432-3.491,0.495-5.254c0.052-1.556,0.269-3.238-0.207-4.651
		c-0.686-2.066-0.03-3.845,0.379-5.718c0.335-1.553,0.809-3.06,1.301-4.871c0.279,0.237,0.616,0.374,0.679,0.584
		c0.323,1.215,0.616,2.434,0.833,3.679c0.335,1.93,0.626,3.869,0.895,5.804C54.397,96.268,54.648,97.943,54.732,99.62"/>
	<path clip-path="url(#SVGID_2_)" fill="#FFFFFF" d="M57.721,21.016c0.199,1.585-0.071,3.148-0.528,4.579
		c-0.645,1.983-1.606,3.904-3.438,5.181c-0.416,0.297-0.724,0.737-1.105,1.084c-0.27,0.246-0.555,0.473-0.875,0.66
		c-0.75,0.442-1.566,0.782-2.282,1.283c-0.703,0.496-1.409,0.442-2.182,0.332c-0.335-0.88-0.234-1.686,0.195-2.514
		c0.268-0.507,0.364-1.102,0.554-1.66c0.581-1.799,1.039-3.612,0.697-5.536c-0.057-0.265-0.076-0.575,0.016-0.819
		c0.749-1.846,1.27-3.873,2.377-5.483c1.5-2.153,3.159-4.287,5.617-5.753c0.044,0.408,0.098,0.761,0.136,1.122
		C57.174,15.998,57.392,18.517,57.721,21.016"/>
	<path clip-path="url(#SVGID_2_)" fill="#ED1D24" d="M54.675,64.027c0.776,2.747-0.486,5.528-3.012,6.605
		c-0.435,0.187-0.939,0.201-1.411,0.293c-1.118-0.007-1.906-0.511-2.567-1.332c-0.293-0.351-0.64-0.651-0.909-1.018
		c-0.182-0.255-0.366-0.599-0.345-0.884c0.104-1.968,0.157-3.96,1.808-5.416c0.068-0.065,0.134-0.231,0.214-0.245
		c1.228-0.265,2.466-0.744,3.696-0.727C53.736,61.327,54.301,62.704,54.675,64.027"/>
	<path clip-path="url(#SVGID_2_)" fill="#FFFFFF" d="M48.04,132.692c0.435,1.723,0.484,3.475-0.017,5.219
		c-0.623,2.204-1.198,4.427-1.853,6.63c-0.163,0.547-0.496,1.037-0.792,1.523c-0.205,0.337-0.466,0.383-0.643-0.071
		c-0.293-0.742-0.531-1.516-0.889-2.235c-0.579-1.162-1.23-2.283-1.865-3.412c-0.082-0.167-0.196-0.333-0.217-0.499
		c-0.489-4.04-0.554-8.083-0.275-12.143c0.158-2.382,0.525-4.714,1.127-7.018c0.089-0.372,0.071-0.77,0.089-1.15
		c0.091-1.642,0.157-3.287,0.245-4.931c0.116-0.068,0.231-0.131,0.344-0.2c0.196,0.153,0.486,0.283,0.564,0.485
		c0.405,0.953,0.891,1.919,1.037,2.922c0.082,0.56-0.453,1.206-0.708,1.808c-0.361,0.857-0.963,1.684-1.029,2.553
		c-0.066,1.054,0,2.187,0.693,3.164c0.751,1.07,1.384,2.209,2.114,3.306c0.143,0.231,0.469,0.347,0.629,0.578
		c0.344,0.459,0.768,0.823,0.82,1.497C47.468,131.397,47.869,132.023,48.04,132.692"/>
	<path clip-path="url(#SVGID_2_)" fill="#FFFFFF" d="M46.41,158.11c0.653,2.668,0.807,5.412-0.391,8.016
		c-0.155,0.344-0.35,0.684-0.608,0.956c-0.355,0.36-0.779,0.652-1.299,0.252c-0.506-0.385-0.731-0.8-0.483-1.484
		c0.357-1.015,0.751-2.07,0.837-3.127c0.153-1.934-0.569-3.733-1.571-5.321c-0.621-1.005-1.764-1.58-2.954-1.897
		c-0.215-0.06-0.441-0.276-0.533-0.472c-0.215-0.435-0.314-0.931-0.527-1.363c-0.878-1.799-1.823-3.57-2.686-5.386
		c-0.382-0.795-0.596-1.683-0.996-2.472c-0.463-0.901-1.044-1.747-1.538-2.638c-0.578-1.053-1.112-2.127-1.669-3.196
		c-0.705-1.355-1.435-2.712-2.104-4.073c-0.238-0.492-0.375-1.023-0.558-1.529c0.074-0.069,0.149-0.137,0.219-0.201
		c0.839,0.435,1.684,0.864,2.505,1.327c1.959,1.087,3.518,2.651,5.08,4.232c1.414,1.442,2.342,3.179,3.297,4.906
		c0.822,1.492,1.479,3.083,2.19,4.619c0.142,0.293,0.226,0.626,0.404,0.871C44.824,152.513,45.714,155.294,46.41,158.11"/>
	<path clip-path="url(#SVGID_2_)" fill="#FFFFFF" d="M47.848,87.37c0.089,0.06,0.19,0.128,0.273,0.201
		c-0.154,1.1-0.279,2.212-0.469,3.303c-0.201,1.198-0.331,2.428-0.708,3.571c-0.454,1.43,0.095,2.7,0.3,4.038
		c0.036,0.208,0.043,0.435,0.036,0.646c-0.04,2.547-0.048,5.125-0.833,7.582c-0.366,1.136-0.917,2.236-1.515,3.267
		c-0.3,0.53-0.818,0.976-1.643,0.738c-1.488-0.415-2.833-0.02-4.046,0.884c-0.22,0.177-0.411,0.375-0.616,0.565
		c-0.502,0.451-1.023,0.665-1.58,0.095c-0.505-0.518-0.618-1.619-0.136-2.01c0.654-0.536,1.363-0.999,2.077-1.455
		c1.017-0.67,1.978-1.387,2.493-2.543c0.839-1.9,1.176-3.827,0.133-5.75c-0.34-0.631-0.85-1.148-1.201-1.771
		c-0.191-0.313-0.376-0.839-0.24-1.087c0.929-1.66,1.409-3.557,2.74-5.025c0.942-1.037,1.638-2.306,2.573-3.349
		C46.155,88.538,47.047,87.998,47.848,87.37"/>
	<path clip-path="url(#SVGID_2_)" fill="#FFFFFF" d="M48.536,37.606c0.054-0.02,0.299,0.347,0.258,0.409
		c-0.418,0.622-0.925,1.183-1.299,1.829c-0.371,0.599-0.611,1.278-1.005,2.128c-0.293-0.844-0.776-1.509-0.627-1.992
		c0.225-0.722,0.833-1.378,1.396-1.944C47.552,37.749,48.097,37.715,48.536,37.606"/>
	<path clip-path="url(#SVGID_2_)" fill="#FFFFFF" d="M47.471,57.211c1.15,1.369-0.177,2.057-0.798,2.92
		c-0.592,0.82-1.211,1.612-1.853,2.397c-0.346,0.415-0.708,0.2-0.942-0.169c-0.5-0.787-0.959-1.6-1.441-2.404
		c-0.307-0.518-0.652-1.007-0.909-1.547c-0.845-1.745-1.744-3.482-2.464-5.273c-0.744-1.874-1.351-3.809-1.924-5.739
		c-0.351-1.147-0.527-2.339-0.836-3.758c0.576,0.214,0.92,0.252,1.134,0.439c1.072,0.955,2.125,1.927,3.156,2.92
		c0.733,0.714,1.486,1.422,2.144,2.207c1.789,2.118,3.499,4.325,4.285,7.068C47.106,56.609,47.253,56.942,47.471,57.211"/>
	<path clip-path="url(#SVGID_2_)" fill="#FFFFFF" d="M41.454,169.762c0.506,0.122,0.572,0.736,0.085,1.083
		c-0.918,0.663-1.854,1.283-2.863,1.795c-2.508,1.269-5.17,1.924-7.996,1.69c-2.007-0.163-3.852-0.857-5.586-1.849
		c-1.271-0.721-2.597-1.383-3.737-2.281c-1.699-1.313-3.379-2.706-4.212-4.801c-0.262-0.646-0.262-1.108,0.572-1.446
		c1.659-0.706,3.203-1.661,4.864-2.345c1.595-0.676,3.273-1.23,4.961-1.682c2.284-0.622,3.522,0.584,3.709,2.909
		c0.072,1.01,0.438,2,0.667,2.993c0.05,0.2,0.121,0.41,0.204,0.744c-2.127,0.22-3.999-0.361-5.907-0.79
		c-0.733-0.163-1.501-0.244-2.247-0.301c-0.733-0.052-1.379,0.163-1.542,1c-0.175,0.9,0.614,1.152,1.145,1.461
		c0.509,0.299,1.132,0.404,1.716,0.53c1.666,0.357,3.332,0.83,5.022,0.966c1.431,0.119,2.94,0.203,4.313-0.509
		c0.227-0.1,0.589-0.089,0.818,0.017c0.999,0.424,2.033,0.277,3.059,0.318C39.492,169.293,40.485,169.533,41.454,169.762"/>
	<path clip-path="url(#SVGID_2_)" fill="#ED1D24" d="M41.253,160.779c0.136,0.353,0.22,0.727,0.37,1.274
		c-0.218,0.724-0.373,1.614-0.747,2.39c-0.486,0.986-2.108,1.207-2.969,0.486c-0.828-0.687-1.59-1.431-2.425-2.114
		c-0.763-0.608-0.495-1.37-0.338-2.084c0.275-1.259,1.548-2.857,3.236-2.958c1.033-0.059,2.05,0.706,2.325,1.707
		C40.817,159.926,41.082,160.335,41.253,160.779"/>
	<path clip-path="url(#SVGID_2_)" fill="#FFFFFF" d="M43.858,85.5c0.407,1.047-0.314,1.726-0.8,2.467
		c-0.309,0.473-0.737,0.867-1.044,1.33c-0.369,0.581-0.808,0.463-1.216,0.155c-0.796-0.594-1.635-1.159-2.287-1.913
		c-1.329-1.506-2.658-3.05-3.796-4.706c-1.153-1.702-2.112-3.549-3.117-5.351c-0.377-0.656-0.64-1.376-0.925-2.084
		c-0.221-0.546-1.404-1.305-1.996-1.26c-0.744,0.06-1.168,0.638-1.098,1.314l-2.793-0.046c-0.078-1.093-0.098-2.193-0.059-3.289
		c0.062-1.584,0.323-3.189,1.15-4.61c0.098-0.172,0.673-0.24,0.923-0.122c0.824,0.395,1.609,0.881,2.398,1.364
		c1.611,0.999,3.272,1.933,4.785,3.053c1.078,0.801,2,1.826,2.893,2.841c0.775,0.874,1.388,1.873,2.104,2.789
		c0.225,0.286,0.537,0.489,0.82,0.723c0.066,0.041,0.206,0.048,0.223,0.1c0.463,1.812,2.074,2.903,2.829,4.527
		C43.264,83.658,43.517,84.595,43.858,85.5"/>
	<path clip-path="url(#SVGID_2_)" fill="#FFFFFF" d="M44.339,70.725c0.344,0.687,0.367,1.233,0.018,1.843
		c-0.759,1.346-1.533,2.675-2.306,4.011c-0.038,0.065-0.054,0.157-0.133,0.385c-0.635-0.684-1.085-1.251-1.607-1.734
		c-1.554-1.408-2.303-3.313-3.24-5.127c-1.156-2.211-2.06-4.518-2.651-6.911c-0.643-2.694-1.199-5.427-0.929-8.255
		c0.132-1.303-0.215-2.637-0.126-3.951c0.116-1.718,0.455-3.427,0.701-5.145c0.077-0.019,0.153-0.034,0.233-0.057
		c0.17,0.278,0.474,0.551,0.514,0.85c0.255,1.891,1.173,3.587,1.663,5.386c0.657,2.407,1.73,4.602,2.733,6.836
		c0.589,1.305,1.531,2.455,2.296,3.679c0.584,0.928,1.257,1.813,1.651,2.807c0.268,0.688,0.028,1.557,0.187,2.303
		C43.578,68.695,43.855,69.772,44.339,70.725"/>
	<path clip-path="url(#SVGID_2_)" fill="#FFFFFF" d="M44.262,44.291c0.524,1.002,0.89,2.006,0.18,3.219
		c-0.572-0.177-0.986-0.575-1.273-1.138c-0.057-0.122-0.078-0.336-0.158-0.352c-1.272-0.282-1.619-1.628-2.597-2.257
		c-1.245-0.818-2.445-1.705-3.66-2.56c-0.25-0.176-0.543-0.306-0.727-0.529c-0.939-1.137-2-0.809-3.053-0.258
		c-0.397,0.209-0.574,0.264-0.921-0.147c-1.958-2.333-4.28-4.372-5.583-7.204c-0.203-0.429-0.639-0.586-1.016-0.368
		c-0.187,0.113-0.326,0.605-0.246,0.843c0.276,0.833,0.681,1.604,1.001,2.424c0.677,1.649,1.931,2.894,2.947,4.316
		c0.732,1.029,1.492,1.96,2.591,2.611c0.167,0.101,0.37,0.363,0.347,0.526c-0.081,0.842-0.255,1.669-0.347,2.505
		c-0.113,0.962-0.177,1.927-0.252,2.887c-0.106,1.214-0.208,2.418-0.34,3.625c-0.021,0.163-0.16,0.311-0.39,0.71
		c-1.055-1.839-2.02-3.488-2.939-5.162c-0.548-0.979-1.088-1.978-1.559-2.998c-0.514-1.122-0.976-2.291-1.463-3.427
		c-0.553-1.288-1.187-2.536-1.656-3.843c-0.223-0.618-0.125-1.359-0.223-2.035c-0.126-0.904-0.344-1.784-0.456-2.69
		c-0.165-1.408-0.261-2.825-0.388-4.245c-0.027-0.406-0.062-0.827-0.027-1.228c0.024-0.302,0.163-0.598,0.263-0.881
		c0.054-0.123,0.163-0.215,0.229-0.336c0.296-0.609,0.588-1.364,1.355-1.319c0.794,0.055,1.597,0.346,2.366,0.625
		c0.879,0.337,1.736,0.752,2.563,1.197c1.068,0.567,2.073,1.245,3.161,1.769c1.14,0.559,1.799,1.563,2.567,2.45
		c0.177,0.21,0.215,0.693,0.117,0.986c-0.524,1.612-0.347,3.193-0.032,4.817c0.225,1.159,1.091,1.874,1.832,2.558
		c0.922,0.85,2.14,1.45,3.309,1.957c0.615,0.263,1.421,0.195,2.112,0.109c0.679-0.085,1.074,0.038,1.331,0.705
		C43.513,42.886,43.888,43.591,44.262,44.291"/>
	<path clip-path="url(#SVGID_2_)" fill="#FFFFFF" d="M45.571,27.119c-0.021,0.522-0.032,1.043-0.078,1.566
		c-0.061,0.589-0.4,0.735-0.891,0.408c-1.067-0.672-2.122-1.349-3.196-2.015c-1.156-0.721-3.113-0.17-3.689,1.037
		c-0.325,0.684-1.149,0.856-1.543,0.193c-0.446-0.754-0.755-1.622-0.933-2.475c-0.389-1.826-0.821-3.665-0.92-5.508
		c-0.115-2.069,0.143-4.161,0.184-6.239c0.003-0.679,0.078-1.3,0.469-1.862c0.285-0.412,0.432-0.721,1.013-0.214
		c0.653,0.578,1.506,0.941,2.254,1.393c1.607,0.938,2.686,2.395,3.773,3.839c0.86,1.15,1.66,2.377,2.381,3.62
		c0.87,1.484,1.241,3.126,1.227,4.849c0,0.462-0.044,0.936-0.065,1.408H45.571z"/>
	<path clip-path="url(#SVGID_2_)" fill="#ED1D24" d="M44.604,34.517c-0.047,1.213-0.306,2.424-1.162,3.243
		c-1.04,0.996-2.374,1.417-3.847,0.825c-1.494-0.611-1.883-1.489-2.038-2.957c-0.031-0.337,0.282-0.704,0.428-1.064
		c0.16-0.367,0.424-0.722,0.456-1.099c0.146-1.382,1.628-2.888,3.004-3.035c1.739-0.181,2.602,1.153,3.01,2.543
		C44.581,33.473,44.558,33.996,44.604,34.517"/>
	<path clip-path="url(#SVGID_2_)" fill="#FFFFFF" d="M40.562,114.287c-0.308,2.365-0.616,4.728-0.915,7.088
		c-0.131,1.146-0.217,2.311-0.335,3.464c-0.205,2.037-0.469,4.089-0.588,6.133c-0.069,1.252,0.118,2.52,0.142,3.788
		c0.021,0.632-0.052,1.267-0.079,1.918c-1.074-0.242-1.799-1.113-1.876-2.087c-0.111-1.346-0.218-2.69-0.398-4.036
		c-0.34-2.582-0.131-5.125,0.527-7.627c0.579-2.27,1.212-4.527,1.861-6.792c0.162-0.554,0.434-1.085,0.731-1.585
		c0.135-0.214,0.459-0.305,0.696-0.445C40.407,114.174,40.484,114.228,40.562,114.287"/>
	<path clip-path="url(#SVGID_2_)" fill="#ED1D24" d="M39.379,102.282c-0.015,2.679-1.087,4.185-3.249,4.936
		c-1.802,0.63-4.429-0.667-4.835-2.952c-0.394-2.233,0.36-3.991,1.964-5.387c0.554-0.504,1.454-0.607,2.201-0.898
		c0.013,0.065,0.047,0.139,0.077,0.217C37.677,98.297,39.4,100.129,39.379,102.282"/>
	<path clip-path="url(#SVGID_2_)" fill="#FFFFFF" d="M36.105,154.366c0.198,0.471,0.299,0.819-0.463,0.979
		c-0.981,0.218-1.79,0.809-2.349,1.704c-0.119,0.193-0.407,0.296-0.632,0.448c-0.108-0.193-0.273-0.369-0.353-0.567
		c-0.783-2.138-1.666-4.253-2.306-6.436c-0.643-2.164-1.037-4.386-1.55-6.589c-0.225-0.942-0.504-1.868-0.703-2.825
		c-0.229-1.149-0.404-2.318-0.599-3.477c0.101-0.079,0.21-0.151,0.323-0.217c0.214,0.193,0.51,0.339,0.616,0.564
		c0.594,1.172,1.1,2.375,1.693,3.537c0.649,1.269,1.406,2.48,2.054,3.747c0.88,1.725,1.702,3.461,2.529,5.213
		C34.974,151.742,35.527,153.055,36.105,154.366"/>
	<path clip-path="url(#SVGID_2_)" fill="#FFFFFF" d="M38.425,91.219c1.1,1.085,1.182,1.363,0.251,2.852
		c-0.435,0.663-0.788,1.364-1.22,2.143c-1.058-0.875-2.282-0.591-3.492-0.27c-1.286,0.35-1.633,0.187-2.377-0.934
		c-0.898-1.333-1.951-2.578-2.713-3.972c-0.652-1.176-1.031-2.499-1.455-3.78c-0.51-1.537-0.996-3.076-1.39-4.644
		c-0.428-1.726-0.837-3.475-1.061-5.24c-0.078-0.652-0.146-1.308-0.187-1.968l2.794,0.047c0.021,0.206,0.086,0.423,0.208,0.63
		c1.397,2.491,2.733,5.001,4.195,7.443c0.722,1.202,1.588,2.331,2.492,3.4C35.728,88.407,37.04,89.861,38.425,91.219"/>
	<path clip-path="url(#SVGID_2_)" fill="#FFFFFF" d="M36.396,114.711c0.13,0.261,0.216,0.638,0.13,0.892
		c-0.384,1.206-0.829,2.366-1.339,3.821c-0.29-0.241-0.646-0.418-0.813-0.705c-1.179-2.067-2.297-4.168-3.485-6.228
		c-0.771-1.329-1.696-2.58-2.416-3.94c-0.816-1.526-1.486-3.121-2.194-4.699c-0.065-0.123,0.006-0.397,0.112-0.485
		c0.113-0.08,0.362-0.029,0.513,0.033c0.303,0.133,0.591,0.367,0.908,0.459c0.96,0.288,1.011,1.248,1.413,1.917
		c0.852,1.397,1.889,2.594,3.314,3.397c1.243,0.7,2.25,1.503,2.604,3.039C35.344,113.09,35.99,113.864,36.396,114.711"/>
	<path clip-path="url(#SVGID_2_)" fill="#FFFFFF" d="M33.412,122.649c0.887,0.847,0.634,1.79,0.371,2.751
		c-0.152,0.545-0.332,1.082-0.584,1.873c-0.453-0.291-1.023-0.5-1.346-0.907c-1.139-1.37-2.262-2.774-3.267-4.247
		c-0.792-1.162-1.524-2.386-2.078-3.671c-0.63-1.452-1.026-3.007-1.514-4.519c-0.069-0.184-0.084-0.377-0.151-0.561
		c-0.843-2.508-1.109-5.84-0.803-7.74c0.761,0.22,0.803,0.972,1.143,1.468c0.646,0.939,1.221,1.927,1.805,2.904
		c0.632,1.06,1.234,2.152,1.853,3.237c0.815,1.412,1.707,2.779,2.41,4.248c0.602,1.215,0.936,2.547,1.435,3.812
		C32.872,121.772,33.059,122.312,33.412,122.649"/>
</g>
</svg>
