<?xml version="1.0" encoding="utf-8"?>
<!-- Generator: Adobe Illustrator 16.0.0, SVG Export Plug-In . SVG Version: 6.00 Build 0)  -->
<!DOCTYPE svg PUBLIC "-//W3C//DTD SVG 1.1//EN" "http://www.w3.org/Graphics/SVG/1.1/DTD/svg11.dtd">
<svg version="1.1" id="Слой_1" xmlns="http://www.w3.org/2000/svg" xmlns:xlink="http://www.w3.org/1999/xlink" x="0px" y="0px"
	 width="375.5px" height="14px" viewBox="0 0 375.5 14" enable-background="new 0 0 375.5 14" xml:space="preserve">
<g>
	<defs>
		<rect id="SVGID_1_" x="-852" y="-611.5" width="1680" height="1050"/>
	</defs>
	<clipPath id="SVGID_2_">
		<use xlink:href="#SVGID_1_"  overflow="visible"/>
	</clipPath>
</g>
<path fill="none" stroke="#842C00" stroke-width="0.938" stroke-miterlimit="10" d="M202.554,8.068c0,0-3.371-2.426-4.502-2.426
	c-1.13,0-2.046,1.086-2.046,2.426c0,1.341,0.916,2.427,2.046,2.427C199.183,10.495,202.554,8.068,202.554,8.068z M201.353,8.068
	h169.797 M173.604,8.068c0,0,3.371,2.427,4.501,2.427c1.131,0,2.047-1.086,2.047-2.427c0-1.34-0.916-2.426-2.047-2.426
	C176.975,5.643,173.604,8.068,173.604,8.068z M174.805,8.068H5.008"/>
<path fill="#842C00" d="M188.079,9.628c0.86,0,1.559-0.698,1.559-1.559c0-0.861-0.698-1.56-1.559-1.56
	c-0.861,0-1.56,0.698-1.56,1.56C186.52,8.93,187.218,9.628,188.079,9.628"/>
<circle fill="none" stroke="#842C00" cx="188.079" cy="8.069" r="1.559"/>
</svg>
