<?xml version="1.0" encoding="utf-8"?>
<!-- Generator: Adobe Illustrator 16.0.0, SVG Export Plug-In . SVG Version: 6.00 Build 0)  -->
<!DOCTYPE svg PUBLIC "-//W3C//DTD SVG 1.1//EN" "http://www.w3.org/Graphics/SVG/1.1/DTD/svg11.dtd">
<svg version="1.1" id="Слой_1" xmlns="http://www.w3.org/2000/svg" xmlns:xlink="http://www.w3.org/1999/xlink" x="0px" y="0px"
	 width="53.478px" height="13px" viewBox="0 0 53.478 13" enable-background="new 0 0 53.478 13" xml:space="preserve">
<g>
	<defs>
		<rect id="SVGID_1_" x="-1169.672" y="-529.5" width="1680" height="1050"/>
	</defs>
	<clipPath id="SVGID_2_">
		<use xlink:href="#SVGID_1_"  overflow="visible"/>
	</clipPath>
</g>
<path fill="#842C00" d="M8.12,7.435c0,0,5.094-3.091,6.801-3.091c1.709,0,3.092,1.385,3.092,3.091c0,1.709-1.383,3.094-3.092,3.094
	C13.214,10.528,8.12,7.435,8.12,7.435"/>
<path fill="#842C00" d="M47.69,7.438c0,0-5.092,3.09-6.801,3.09c-1.707,0-3.092-1.385-3.092-3.09c0-1.71,1.385-3.095,3.092-3.095
	C42.599,4.344,47.69,7.438,47.69,7.438"/>
<path fill="#842C00" d="M25.433,7.122c0-1.365,1.107-2.472,2.475-2.472c1.365,0,2.473,1.106,2.473,2.472
	c0,1.367-1.107,2.475-2.473,2.475C26.54,9.597,25.433,8.489,25.433,7.122"/>
</svg>
